<?xml version="1.0" encoding="iso-8859-1"?>
<!-- Generator: Adobe Illustrator 19.0.0, SVG Export Plug-In . SVG Version: 6.00 Build 0)  -->
<svg version="1.1" id="Layer_1" xmlns="http://www.w3.org/2000/svg" xmlns:xlink="http://www.w3.org/1999/xlink" x="0px" y="0px"
	 viewBox="0 0 512.001 512.001" style="enable-background:new 0 0 512.001 512.001;" xml:space="preserve">
<path style="fill:#E2D7D3;" d="M503.636,412.151L451.713,92.419v340.106h37.343C505.399,432.526,504.221,416.37,503.636,412.151z"/>
<path style="fill:#EFE7E4;" d="M438.7,79.405H21.102c-7.188,0-13.013,5.826-13.013,13.014v370.955
	c0,7.188,5.825,13.013,13.013,13.013h338.87h28.58H438.7c7.187,0,13.013-5.824,13.013-13.013V92.42
	C451.714,85.233,445.886,79.405,438.7,79.405z M64.591,151.161c-11.543,0-20.903-9.358-20.903-20.902
	c0-11.544,9.36-20.904,20.903-20.904c11.544,0,20.904,9.36,20.904,20.904C85.495,141.803,76.135,151.161,64.591,151.161z
	 M129.971,151.161c-11.543,0-20.903-9.358-20.903-20.902c0-11.544,9.36-20.904,20.903-20.904c11.545,0,20.904,9.36,20.904,20.904
	C150.875,141.803,141.516,151.161,129.971,151.161z M265.701,131.944c0,7.148-5.794,12.943-12.943,12.943h-56.98
	c-7.148,0-12.943-5.795-12.943-12.943v-3.373c0-7.148,5.795-12.943,12.943-12.943h56.98c7.149,0,12.943,5.795,12.943,12.943V131.944
	z M320.732,151.161c-11.544,0-20.904-9.358-20.904-20.902c0-11.544,9.36-20.904,20.904-20.904c11.543,0,20.904,9.36,20.904,20.904
	C341.636,141.803,332.275,151.161,320.732,151.161z M386.113,151.161c-11.544,0-20.903-9.358-20.903-20.902
	c0-11.544,9.359-20.904,20.903-20.904s20.904,9.36,20.904,20.904C407.017,141.803,397.657,151.161,386.113,151.161z"/>
<g>
	<polygon style="fill:#BAB0A8;" points="451.714,92.42 451.714,432.526 477.095,432.526 477.095,248.715 	"/>
	<path style="fill:#BAB0A8;" d="M33.985,463.375V92.42c0-7.188,5.825-13.014,13.013-13.014H21.102
		c-7.188,0-13.013,5.826-13.013,13.014v370.955c0,7.188,5.825,13.013,13.013,13.013h25.896
		C39.81,476.388,33.985,470.562,33.985,463.375z"/>
</g>
<path style="fill:#F44321;" d="M438.7,79.405H21.102c-7.188,0-13.013,5.826-13.013,13.014v87.837h351.883h28.58h63.162V92.42
	C451.714,85.233,445.886,79.405,438.7,79.405z M64.591,151.161c-11.543,0-20.903-9.358-20.903-20.902
	c0-11.544,9.36-20.904,20.903-20.904c11.544,0,20.904,9.36,20.904,20.904C85.495,141.803,76.135,151.161,64.591,151.161z
	 M129.971,151.161c-11.543,0-20.903-9.358-20.903-20.902c0-11.544,9.36-20.904,20.903-20.904c11.545,0,20.904,9.36,20.904,20.904
	C150.875,141.803,141.516,151.161,129.971,151.161z M265.701,131.944c0,7.148-5.794,12.943-12.943,12.943h-56.98
	c-7.148,0-12.943-5.795-12.943-12.943v-3.373c0-7.148,5.795-12.943,12.943-12.943h56.98c7.149,0,12.943,5.795,12.943,12.943V131.944
	z M320.732,151.161c-11.544,0-20.904-9.358-20.904-20.902c0-11.544,9.36-20.904,20.904-20.904c11.543,0,20.904,9.36,20.904,20.904
	C341.636,141.803,332.275,151.161,320.732,151.161z M386.113,151.161c-11.544,0-20.903-9.358-20.903-20.902
	c0-11.544,9.359-20.904,20.903-20.904s20.904,9.36,20.904,20.904C407.017,141.803,397.657,151.161,386.113,151.161z"/>
<path style="fill:#D32D20;" d="M33.985,92.42c0-7.188,5.825-13.014,13.013-13.014H21.102c-7.188,0-13.013,5.826-13.013,13.014
	v87.837h25.896C33.985,180.258,33.985,92.42,33.985,92.42z"/>
<g>
	<path style="fill:#231F20;" d="M438.7,484.477h-50.147c-4.467,0-8.089-3.622-8.089-8.089c0-4.469,3.622-8.089,8.089-8.089H438.7
		c2.716,0,4.924-2.209,4.924-4.924V92.42c0-2.716-2.209-4.925-4.924-4.925H21.102c-2.716,0-4.924,2.21-4.924,4.925v370.955
		c0,2.715,2.209,4.924,4.924,4.924h338.87c4.467,0,8.089,3.621,8.089,8.089c0,4.467-3.622,8.089-8.089,8.089H21.102
		C9.467,484.477,0,475.01,0,463.375V92.42c0-11.637,9.467-21.103,21.102-21.103H438.7c11.636,0,21.102,9.467,21.102,21.103v370.955
		C459.803,475.01,450.336,484.477,438.7,484.477z"/>
	<path style="fill:#231F20;" d="M451.714,188.346h-63.162c-4.467,0-8.089-3.621-8.089-8.089s3.622-8.089,8.089-8.089h55.072V92.42
		c0-2.716-2.209-4.925-4.924-4.925H21.102c-2.716,0-4.924,2.21-4.924,4.925v79.748h343.794c4.467,0,8.089,3.621,8.089,8.089
		s-3.622,8.089-8.089,8.089H8.089c-4.469,0-8.089-3.621-8.089-8.089V92.42c0-11.637,9.467-21.103,21.102-21.103H438.7
		c11.636,0,21.102,9.467,21.102,21.103v87.837C459.803,184.725,456.181,188.346,451.714,188.346z"/>
	<path style="fill:#231F20;" d="M386.113,159.25c-15.986,0-28.992-13.005-28.992-28.991c0-15.987,13.007-28.993,28.992-28.993
		c15.987,0,28.993,13.007,28.993,28.993C415.106,146.245,402.1,159.25,386.113,159.25z M386.113,117.444
		c-7.066,0-12.814,5.749-12.814,12.815c0,7.065,5.748,12.812,12.814,12.812c7.067,0,12.815-5.748,12.815-12.812
		C398.927,123.193,393.18,117.444,386.113,117.444z"/>
	<path style="fill:#231F20;" d="M397.251,141.027c-0.464,0-0.933-0.04-1.405-0.122c-18.037-3.159-31.129-26.927-31.129-56.514
		c0-31.888,15.452-56.868,35.178-56.868c17.661,0,31.935,19.495,34.713,47.409c0.442,4.445-2.803,8.408-7.249,8.85
		c-4.45,0.454-8.408-2.803-8.85-7.249c-2.018-20.279-11.233-32.831-18.614-32.831c-8.968,0-18.999,17.401-18.999,40.689
		c0,22.414,9.174,39.078,17.742,40.578c4.401,0.771,7.344,4.963,6.573,9.364C404.523,138.26,401.107,141.027,397.251,141.027z"/>
	<path style="fill:#231F20;" d="M320.732,159.25c-15.987,0-28.993-13.005-28.993-28.991c0-15.987,13.007-28.993,28.993-28.993
		s28.993,13.007,28.993,28.993C349.726,146.245,336.719,159.25,320.732,159.25z M320.732,117.444
		c-7.067,0-12.815,5.749-12.815,12.815c0,7.065,5.748,12.812,12.815,12.812c7.067,0,12.815-5.748,12.815-12.812
		C333.547,123.193,327.799,117.444,320.732,117.444z"/>
	<path style="fill:#231F20;" d="M331.87,141.027c-0.464,0-0.932-0.04-1.404-0.122c-18.038-3.159-31.129-26.927-31.129-56.514
		c0-31.888,15.452-56.868,35.178-56.868c17.662,0,31.936,19.495,34.713,47.409c0.441,4.446-2.804,8.408-7.25,8.85
		c-4.45,0.454-8.409-2.804-8.851-7.249c-2.016-20.279-11.23-32.831-18.612-32.831c-8.968,0-18.999,17.401-18.999,40.689
		c0,22.415,9.173,39.078,17.739,40.578c4.401,0.771,7.344,4.963,6.574,9.364C339.142,138.26,335.726,141.027,331.87,141.027z"/>
	<path style="fill:#231F20;" d="M129.971,159.25c-15.987,0-28.992-13.005-28.992-28.991c0-15.987,13.005-28.993,28.992-28.993
		s28.993,13.007,28.993,28.993C158.964,146.245,145.958,159.25,129.971,159.25z M129.971,117.444
		c-7.066,0-12.814,5.749-12.814,12.815c0,7.065,5.748,12.812,12.814,12.812c7.066,0,12.815-5.748,12.815-12.812
		C142.785,123.193,137.037,117.444,129.971,117.444z"/>
	<path style="fill:#231F20;" d="M141.11,141.027c-0.464,0-0.933-0.04-1.405-0.122c-18.037-3.159-31.129-26.927-31.129-56.514
		c0-31.888,15.452-56.868,35.177-56.868c17.661,0,31.936,19.495,34.714,47.409c0.442,4.445-2.803,8.408-7.249,8.85
		c-4.455,0.454-8.408-2.803-8.85-7.249c-2.018-20.279-11.234-32.831-18.615-32.831c-8.968,0-18.998,17.401-18.998,40.689
		c0,22.415,9.174,39.078,17.742,40.578c4.401,0.771,7.344,4.963,6.573,9.364C148.381,138.26,144.965,141.027,141.11,141.027z"/>
	<path style="fill:#231F20;" d="M64.591,159.25c-15.987,0-28.992-13.005-28.992-28.991c0-15.987,13.005-28.993,28.992-28.993
		s28.993,13.007,28.993,28.993C93.584,146.245,80.577,159.25,64.591,159.25z M64.591,117.444c-7.066,0-12.814,5.749-12.814,12.815
		c0,7.065,5.748,12.812,12.814,12.812s12.815-5.748,12.815-12.812C77.405,123.193,71.656,117.444,64.591,117.444z"/>
	<path style="fill:#231F20;" d="M75.729,141.027c-0.464,0-0.932-0.04-1.404-0.122c-18.038-3.159-31.129-26.927-31.129-56.514
		c0-31.888,15.452-56.868,35.177-56.868c17.663,0,31.937,19.495,34.714,47.409c0.441,4.446-2.804,8.408-7.25,8.85
		c-4.456,0.454-8.409-2.804-8.851-7.249C94.97,56.252,85.755,43.701,78.373,43.701c-8.968,0-18.998,17.401-18.998,40.689
		c0,22.415,9.173,39.078,17.739,40.578c4.401,0.771,7.344,4.963,6.574,9.364C83,138.26,79.585,141.027,75.729,141.027z"/>
	<path style="fill:#231F20;" d="M489.056,440.616h-37.343c-4.469,0-8.089-3.621-8.089-8.089V92.42c0-4.215,3.238-7.724,7.438-8.063
		c4.21-0.338,7.961,2.606,8.635,6.766l51.924,319.732c0.01,0.061,0.019,0.123,0.027,0.184c0.588,4.24,1.249,14.913-5.31,22.445
		C503.506,436.737,498.208,440.616,489.056,440.616z M459.803,424.437h29.253c3.709,0,4.741-1.186,5.081-1.577
		c1.665-1.912,1.952-6.139,1.497-9.513l-35.831-220.649V424.437z"/>
	<path style="fill:#231F20;" d="M252.758,152.976h-56.98c-11.598,0-21.032-9.435-21.032-21.032v-3.373
		c0-11.597,9.434-21.032,21.032-21.032h56.98c11.597,0,21.032,9.435,21.032,21.032v3.373
		C273.791,143.541,264.355,152.976,252.758,152.976z M195.778,123.718c-2.676,0-4.854,2.178-4.854,4.854v3.373
		c0,2.676,2.178,4.854,4.854,4.854h56.98c2.676,0,4.854-2.178,4.854-4.854v-3.373c0-2.676-2.178-4.854-4.854-4.854H195.778z"/>
	<path style="fill:#231F20;" d="M376.991,242.697H178.968c-4.469,0-8.089-3.621-8.089-8.089c0-4.469,3.621-8.089,8.089-8.089
		h198.024c4.467,0,8.089,3.621,8.089,8.089C385.08,239.075,381.459,242.697,376.991,242.697z"/>
	<path style="fill:#231F20;" d="M152.084,242.697H71.545c-4.467,0-8.089-3.621-8.089-8.089c0-4.469,3.622-8.089,8.089-8.089h80.539
		c4.469,0,8.089,3.621,8.089,8.089C160.173,239.075,156.551,242.697,152.084,242.697z"/>
	<path style="fill:#231F20;" d="M376.991,289.075H71.545c-4.467,0-8.089-3.621-8.089-8.089c0-4.467,3.622-8.089,8.089-8.089h305.446
		c4.467,0,8.089,3.622,8.089,8.089S381.459,289.075,376.991,289.075z"/>
	<path style="fill:#231F20;" d="M376.991,335.454H71.545c-4.467,0-8.089-3.621-8.089-8.089c0-4.467,3.622-8.089,8.089-8.089h305.446
		c4.467,0,8.089,3.622,8.089,8.089S381.459,335.454,376.991,335.454z"/>
	<path style="fill:#231F20;" d="M376.991,381.833H71.545c-4.467,0-8.089-3.621-8.089-8.089c0-4.467,3.622-8.089,8.089-8.089h305.446
		c4.467,0,8.089,3.622,8.089,8.089S381.459,381.833,376.991,381.833z"/>
	<path style="fill:#231F20;" d="M269.569,428.212H71.545c-4.467,0-8.089-3.621-8.089-8.089c0-4.467,3.622-8.089,8.089-8.089h198.024
		c4.469,0,8.089,3.622,8.089,8.089S274.037,428.212,269.569,428.212z"/>
	<path style="fill:#231F20;" d="M376.991,428.212h-80.539c-4.469,0-8.089-3.621-8.089-8.089c0-4.467,3.621-8.089,8.089-8.089h80.539
		c4.467,0,8.089,3.622,8.089,8.089S381.459,428.212,376.991,428.212z"/>
</g>
<g>
</g>
<g>
</g>
<g>
</g>
<g>
</g>
<g>
</g>
<g>
</g>
<g>
</g>
<g>
</g>
<g>
</g>
<g>
</g>
<g>
</g>
<g>
</g>
<g>
</g>
<g>
</g>
<g>
</g>
</svg>
