<?xml version="1.0" encoding="iso-8859-1"?>
<!-- Generator: Adobe Illustrator 19.0.0, SVG Export Plug-In . SVG Version: 6.00 Build 0)  -->
<svg version="1.1" id="Capa_1" xmlns="http://www.w3.org/2000/svg" xmlns:xlink="http://www.w3.org/1999/xlink" x="0px" y="0px"
	 viewBox="0 0 511.998 511.998" style="enable-background:new 0 0 511.998 511.998;" xml:space="preserve">
<path style="fill:#F4D44E;" d="M226.389,174.114c13.554-8.632,31.363-5.708,31.363-5.708c4.015-0.349,7.897,0.301,11.404,1.734
	v-1.278c-15.527-20.771-7.689-45.774-7.689-45.774l-0.01-2.658l-9.954-16.334l0.893-9.705c0.571-6.203-4.321-11.553-10.551-11.538
	l-9.46,0.023c0,0-30.015-7.056-47.358-20.463h-0.936c-4.501,12.841-5.306,29.579-5.306,29.579l-6.396,15.12
	c-1.058,2.501,0.306,5.364,2.914,6.118c2.578,1.154,10.155,0.889,11.48,8.004c1.458,7.831,5.956,22.194,19.445,24.121
	C219.423,147.238,225.651,161.148,226.389,174.114z"/>
<path style="fill:#E8C842;" d="M246.368,168.076c-1.081-12.874-7.464-26.253-20.516-28.118
	c-17.225-2.461-30.186-28.887-20.834-66.285c-7.018-3.032-14.209-6.792-19.991-11.263h-0.936
	c-4.501,12.841-5.306,29.579-5.306,29.579l-6.396,15.12c-1.058,2.501,0.306,5.364,2.914,6.118c2.567,1.149,10.156,0.887,11.48,8.004
	c1.458,7.831,5.956,22.194,19.445,24.121c13.113,1.873,19.415,15.658,20.161,28.762
	C232.302,170.348,239.429,168.563,246.368,168.076z"/>
<path style="fill:#DB4E33;" d="M257.752,166.406c0,0-31.033-5.11-42.345,18.005c-10.01,20.454-19.842,73.977-10.864,114.287h56.686
	L257.752,166.406z"/>
<path style="fill:#656566;" d="M354.835,416.193l-16.48-7.46l-27.238,36.527c-0.005,20.167,9.185,40.078,20.545,47.046
	c6.398,3.924,14.689-0.205,15.366-7.681l14.02-56.934C361.797,422.898,359.255,418.194,354.835,416.193z"/>
<path style="fill:#545456;" d="M326.568,424.54l-15.451,20.72c-0.005,20.167,9.185,40.079,20.545,47.046
	c6.398,3.924,14.689-0.205,15.366-7.682l4.674-18.981C340.871,465.328,328.794,445.038,326.568,424.54z"/>
<path style="fill:#5085BA;" d="M286.324,375.705c-5.042-3.201-7.825-9.021-7.079-14.947c3.158-25.119-9.814-45.386-9.814-45.386
	l-1.55,0.944c-2.529,12.987-9.122,34.768-25.991,49.661c-3.487,3.078-5.39,7.576-5.39,12.227v23.338l65.034,42.355
	c5.278,3.444,12.347,1.974,15.815-3.288l21.005-31.875L286.324,375.705z"/>
<path style="fill:#3A77AA;" d="M311.194,423.971l-72.856-53.371c-3.056,5.969-1.359,9.739-1.837,30.941l65.034,42.355
	c5.278,3.444,12.347,1.974,15.815-3.288l8.811-13.37C321.112,428.265,315.672,427.258,311.194,423.971z"/>
<path style="fill:#5085BA;" d="M231.484,297.697h-27.158c-11.58,29.344-25.107,44.713-23.143,73.377l6.331,93.444h50.985v-85.314
	c0-4.753,2.06-9.259,5.609-12.421c25.228-22.479,27.297-60.395,27.297-60.395C243.79,299.801,240.128,297.697,231.484,297.697z"/>
<path style="fill:#3A77AA;" d="M231.002,297.697h-26.675c-11.58,29.344-25.107,44.713-23.143,73.377l6.331,93.444h26.675
	l-6.331-93.444C205.896,342.405,219.406,327.084,231.002,297.697z"/>
<path style="fill:#656566;" d="M187.515,463.518c-19.553,4.54-32.257,17.214-36.224,28.903c-2.235,6.583,3.802,13.037,11.216,11.955
	l71.432-0.345c4.831-0.413,6.113-4.18,6.113-9.271l-1.55-31.242L187.515,463.518L187.515,463.518z"/>
<path style="fill:#545456;" d="M190.156,490.35c3.261-9.608,11.567-19.777,24.14-26.832h-26.779
	c-19.552,4.541-32.257,17.214-36.224,28.903c-2.235,6.583,3.802,13.037,11.216,11.955l36.168-0.175
	C192.318,502.807,188.023,496.63,190.156,490.35z"/>
<path style="fill:#F4D44E;" d="M286.586,258.079c0.543-8.563,0.96-30.781-5.653-45.068l-37.965,3.304c0,0-0.368,24.64,5.855,44.938
	c1.03,3.359,0.455,7.003-1.508,9.916c-35.477,52.675-30.461,48.635-33.636,50.427l-15.06,8.496
	c-3.718,2.097-5.074,6.785-3.05,10.544l0,0c1.705,3.167-0.594,5.858-0.555,5.758c-5.379,6.885-3.192,16.965,4.557,21.001l0,0
	c8.972,4.672,20.026,1.739,25.501-6.766c10.296-15.997,10.75-17.412,14.335-20.118c8.092-6.109,32.837-26.62,42.362-55.447
	c0.874-2.644,1.83-5.257,2.982-7.794C288.395,269.251,286.141,265.088,286.586,258.079z"/>
<path style="fill:#E8C842;" d="M263.724,282.903c0.874-2.644,1.83-5.257,2.982-7.794c3.645-8.021,1.391-12.183,1.836-19.192
	c0.499-7.872,0.887-27.282-4.192-41.463l-21.382,1.861c0,0-0.368,24.64,5.855,44.938c1.03,3.359,0.455,7.003-1.508,9.916
	c-35.477,52.675-30.461,48.635-33.637,50.427l-15.06,8.496c-3.718,2.097-5.074,6.785-3.05,10.544
	c1.697,3.151-0.516,5.658-0.555,5.758c-4.887,6.255-3.513,15.132,2.588,19.733c3.756-1.445,7.097-4.043,9.426-7.66
	c10.296-15.997,10.75-17.412,14.335-20.118C229.453,332.24,254.199,311.73,263.724,282.903z"/>
<path style="fill:#ED694A;" d="M286.227,208.709l-1.726-19.837c-0.849-9.758-7.343-17.733-15.973-20.983
	c-6.078,5.058-9.701,13.096-8.947,21.76c2.49,23.722,1.2,24.713,3.564,26.913l17.787-1.548
	C284.135,214.734,286.506,211.911,286.227,208.709z"/>
<path style="fill:#DB4E33;" d="M267.378,216.192c-2.301,0.2-4.336-1.581-4.544-3.979l-1.95-22.404
	c-0.747-8.584,3.075-16.517,9.36-21.196c-16.958-7.895-35.505,5.406-33.944,23.336l1.949,22.404c0.209,2.398,2.322,4.172,4.72,3.964
	c22.389-1.948,15.538-1.352,37.965-3.304L267.378,216.192z"/>
<path style="fill:#CC9D72;" d="M260.993,20.271c0,0-42.207-32.026-79.556,5.324c-37.691,37.691,49.948,58.28,49.948,58.28
	l9.461-0.023c6.23-0.015,11.122,5.334,10.551,11.538c-0.499,5.421-1.336,8.977,1.364,13.408l8.708,14.289
	C326.328,53.359,260.993,20.271,260.993,20.271z"/>
<path style="fill:#C19067;" d="M206.439,40.346c23.263-23.263,48.407-19.612,64.066-13.551c-5.257-4.365-9.512-6.524-9.512-6.524
	s-42.207-32.026-79.556,5.324c-23.597,23.598,1.931,40.49,24.322,49.824C195.816,66.27,192.268,54.517,206.439,40.346z"/>
<path d="M357.69,409.572l-15.961-7.225l-51.458-32.663c-2.589-1.644-4.018-4.644-3.641-7.644c2.326-18.499-1.901-37.07-7.657-47.814
	c0.297-1.734,0.819-5.168,0.902-6.825c7.728-13.049,8.531-19.648,11.631-26.476c0.797-1.75,1.469-3.716,1.943-5.685
	c0.971-4.026-1.506-8.079-5.533-9.05s-8.079,1.506-9.05,5.533c-0.781,3.234-1.647,3.537-4.283,11.516
	c-8.879,26.875-32.599,46.351-39.657,51.68c-5.982,4.516-7.185,8.825-16.088,21.998c-5.344,8.304-17.545,6.455-18.987-0.191
	c-0.71-3.272,1.26-5.33,1.296-5.43c3.097-3.967,3.556-9.393,1.171-13.819c-0.291-0.538-0.072-0.159,15.147-8.906
	c5.871-3.31,0.507-0.18,39.315-57.421c4.619-6.812-4.413-8.956-6.119-45.28l25.258-2.198c1.397,4.384,2.372,9.575,2.907,15.501
	c0.372,4.126,4.033,7.169,8.145,6.796c4.126-0.372,7.168-4.019,6.796-8.145c-0.639-7.075-1.864-13.388-3.634-18.887
	c2.451-2.658,3.832-6.288,3.494-10.166l-1.722-19.79c-1.016-11.673-8.185-21.359-18.095-26.169
	c-9.688-14.382-6.926-31.078-5.797-36.041c22.843-25.047,32.464-48.783,28.581-70.574c-4.712-26.435-27.731-40.052-31.861-42.301
	c-2.523-1.802-13.327-9.045-28.153-12.296c-15.719-3.449-39.005-3-60.695,18.689c-14.56,14.56-15.856,30.9-1.45,44.924
	c-2.856,10.4-3.32,21.188-3.389,25.231l-5.813,13.742c-1.339,3.165-1.259,6.759,0.219,9.862c3.971,8.333,13.323,6.489,13.71,8.555
	c3.221,17.297,12.609,28.295,25.759,30.173c8.861,1.266,12.073,11.366,13.184,17.019c-3.868,3.312-7.012,7.352-9.332,12.089
	c-10.438,21.326-20.499,74.121-12.153,115.442l-15.539,34.477c-12.336,27.371-5.365,48.524-5.204,69.169
	c0.271,3.958,3.566,6.987,7.476,6.987c4.369,0,7.787-3.694,7.491-8.014c-2.05-30.373-2.047-28.943-2.122-32.102
	c9.26,12.929,32.17,13.61,42.737-2.811l9.779-15.194c2.311-3.587,4.584-3.367,15.862-14.166
	c-3.889,9.009-9.647,18.516-18.137,26.013c-5.029,4.44-7.914,10.936-7.914,17.819c0,12.862,0,54.75,0,76.609h-36.357l-1.45-21.165
	c-0.284-4.133-3.865-7.251-7.996-6.97c-4.133,0.283-7.254,3.862-6.97,7.996l1.514,22.096c-16.988,5.698-30.526,17.775-35.343,31.967
	c-3.918,11.551,5.945,23.309,18.79,21.836c75.512-0.374,70.844-0.321,71.4-0.37c8.949-0.765,13.377-8.179,12.952-17.092
	l-1.537-30.99v-46.56l51.282,33.46c2.053,1.339,4.274,2.22,6.545,2.68c2.403,24.056,19.909,56.942,40.796,46.458
	c5.274-2.646,8.805-7.652,9.542-13.475c10.457-42.493,13.92-56.465,13.996-56.954C369.468,420.95,365.145,412.948,357.69,409.572z
	 M203.099,319.45l6.199-13.755h6.669c-2.542,4.012-4.674,7.483-6.039,9.902L203.099,319.45z M278.535,208.385
	c-15.179,1.321-22.862,1.99-33.045,2.877l-1.672-19.208c-1.254-14.411,15.674-22.96,27.07-13.387
	c3.521,2.956,5.677,7.081,6.071,11.615L278.535,208.385z M186.488,30.899c32.145-32.143,68.193-5.797,69.736-4.64
	c0.354,0.268,0.732,0.503,1.129,0.703c0.207,0.105,20.697,10.705,24.47,31.868c2.73,15.317-3.828,32.659-19.508,51.647l-4.366-7.166
	c-0.13-3.952,3.341-13.063-3.994-21.084c-7.482-8.18-17.199-5.284-21.942-5.854c-18.6-4.527-48.563-16.359-52.361-29.726
	C179.162,44.931,177.679,39.709,186.488,30.899z M207.037,137.927c-8.731-1.247-11.976-11.855-13.133-18.069
	c-2.078-11.147-13.271-12.804-13.536-12.954l5.072-11.991c1.34-3.169-0.22-7.042,2.147-19.954
	c16.068,9.408,40.553,16.479,43.564,16.416c4.336-0.01,8.19-0.019,9.47-0.022c1.802,0,3.221,1.548,3.055,3.351
	c-0.425,8.239-1.897,10.9,0.172,14.294l9.336,15.321c-1.352,6.33-3.231,20.383,2.172,35.105c-7.919-0.59-16.263,0.217-23.691,2.755
	C227.98,149.603,220.064,139.788,207.037,137.927z M222.242,188.48c1.988-4.063,4.953-7.277,8.86-9.619
	c-4.537,10.977-1.16,18.573-0.283,36.841c0.283,3.255,1.867,6.337,4.75,8.484c0.272,8.509,1.485,25.817,6.677,41.677
	c-3.325,4.927-10.013,14.874-16.58,24.861c-0.598-0.043,2.269-0.01-15.03-0.027C204.477,254.437,212.844,207.684,222.242,188.48z
	 M232.499,496.538c-74.208,0.385-69.854,0.273-70.851,0.416c-1.66,0.249-3.425-0.849-3.004-2.093
	c4.184-12.324,17.898-20.727,29.928-23.744h42.834C232.457,494.187,232.736,494.598,232.499,496.538z M246.044,398.951
	c0.703-16.595-1.815-21.909,2.841-26.019c10.871-9.598,17.965-21.624,22.588-32.737c0.871,5.726,1.213,12.502,0.274,19.974
	c-1.098,8.732,3.017,17.437,10.484,22.179l45.464,28.859l-16.756,25.429c-1.183,1.796-3.61,2.303-5.414,1.125L246.044,398.951z
	 M353.412,426.491c-14.701,59.823-13.977,56.443-14.073,57.507c-0.172,1.905-2.278,2.964-3.937,1.944
	c-9.417-5.775-15.595-22.269-16.726-36.085c4.941-3.523,5.232-6.323,22.221-31.418l10.608,4.801
	C352.766,423.81,353.527,425.126,353.412,426.491z"/>
<g>
</g>
<g>
</g>
<g>
</g>
<g>
</g>
<g>
</g>
<g>
</g>
<g>
</g>
<g>
</g>
<g>
</g>
<g>
</g>
<g>
</g>
<g>
</g>
<g>
</g>
<g>
</g>
<g>
</g>
</svg>
