<svg height="512pt" viewBox="0 0 512 512" width="512pt" xmlns="http://www.w3.org/2000/svg"><path d="m388.066406 504.058594h-264.132812c-64.304688 0-116.433594-52.128906-116.433594-116.429688v-263.695312c0-64.304688 52.128906-116.433594 116.433594-116.433594h264.132812c64.304688 0 116.433594 52.128906 116.433594 116.433594v263.695312c0 64.300782-52.128906 116.429688-116.433594 116.429688zm0 0" fill="#0076de"/><path d="m388.015625 7.5h-38.828125c64.332031 0 116.484375 52.105469 116.484375 116.382812v263.796876c0 64.273437-52.152344 116.378906-116.484375 116.378906h38.828125c64.332031 0 116.484375-52.105469 116.484375-116.378906v-263.796876c0-64.277343-52.152344-116.382812-116.484375-116.382812zm0 0" fill="#005eb0"/><path d="m181.625 242.441406.429688-18.542968c.171874-7.308594 5.746093-13.355469 13.019531-14.128907l91.382812-9.695312c8.652344-.917969 16.171875 5.898437 16.097657 14.585937l-1.460938 176.273438 15.519531.847656c7.722657.417969 13.765625 6.796875 13.765625 14.523438v15.355468c0 8.011719-6.484375 14.515625-14.507812 14.546875l-116.59375.425781c-8.132813.027344-14.710938-6.601562-14.613282-14.726562l.1875-15.214844c.09375-7.667968 6.125-13.945312 13.789063-14.351562l16.539063-.875.1875-133.53125-19.640626-.613282c-7.992187-.25-14.289062-6.890624-14.101562-14.878906zm0 0" fill="#fff"/><path d="m304.535156 120.414062c0-28.636718-23.234375-51.851562-51.894531-51.851562-28.664063 0-51.898437 23.214844-51.898437 51.851562 0 28.636719 23.234374 51.851563 51.898437 51.851563 28.660156 0 51.894531-23.214844 51.894531-51.851563zm0 0" fill="#fff"/><path d="m316.613281 391.78125-15.519531-.847656 1.460938-176.273438c.074218-8.691406-7.445313-15.503906-16.097657-14.585937l-28.34375 3.003906c3.425781 2.675781 5.652344 6.84375 5.613281 11.582031l-1.460937 176.273438 15.519531.847656c7.722656.417969 13.765625 6.796875 13.765625 14.523438v15.355468c0 8.011719-6.484375 14.515625-14.503906 14.546875l-79.695313.289063c.628907.082031 1.269532.140625 1.925782.136718l116.59375-.425781c8.023437-.027343 14.507812-6.535156 14.507812-14.546875v-15.355468c0-7.726563-6.042968-14.105469-13.765625-14.523438zm0 0" fill="#e6e6e6"/><path d="m252.640625 68.5625c-6.867187 0-13.417969 1.34375-19.414063 3.765625 19.039063 7.683594 32.480469 26.308594 32.480469 48.085937 0 21.773438-13.441406 40.402344-32.480469 48.082032 5.996094 2.421875 12.546876 3.765625 19.414063 3.765625 28.660156 0 51.894531-23.210938 51.894531-51.847657 0-28.636718-23.234375-51.851562-51.894531-51.851562zm0 0" fill="#e6e6e6"/><path d="m388.066406 0h-114.566406c-4.144531 0-7.5 3.355469-7.5 7.5s3.355469 7.5 7.5 7.5h114.566406c60.066406 0 108.933594 48.867188 108.933594 108.933594v263.695312c0 60.0625-48.867188 108.929688-108.933594 108.929688h-264.132812c-60.066406 0-108.933594-48.867188-108.933594-108.929688v-263.695312c0-60.066406 48.867188-108.933594 108.933594-108.933594h114.566406c4.140625 0 7.5-3.355469 7.5-7.5s-3.359375-7.5-7.5-7.5h-114.566406c-68.335938 0-123.933594 55.59375-123.933594 123.933594v263.695312c0 68.335938 55.597656 123.929688 123.933594 123.929688h264.132812c68.335938 0 123.933594-55.59375 123.933594-123.929688v-263.695312c0-68.339844-55.597656-123.933594-123.933594-123.933594zm0 0"/><path d="m315.84375 428.707031-42.371094.152344c-4.140625.019531-7.488281 3.386719-7.472656 7.527344.015625 4.132812 3.371094 7.472656 7.5 7.472656h.027344l42.371094-.152344c12.121093-.042969 21.980468-9.933593 21.980468-22.046875v-15.355468c0-11.707032-9.160156-21.375-20.859375-22.015626l-8.367187-.453124 1.402344-169.113282c.050781-6.273437-2.585938-12.292968-7.234376-16.507812-4.652343-4.222656-10.90625-6.257813-17.152343-5.601563l-91.386719 9.695313c-10.984375 1.167968-19.464844 10.375-19.722656 21.414062l-.429688 18.542969c-.28125 12.058594 9.300782 22.175781 21.363282 22.550781l12.363281.386719-.046875 35.601563c-.007813 4.144531 3.34375 7.503906 7.488281 7.511718h.011719c4.136718 0 7.492187-3.351562 7.5-7.488281l.058594-42.882813c.007812-4.054687-3.210938-7.378906-7.265626-7.507812l-19.640624-.613281c-3.859376-.121094-6.925782-3.351563-6.835938-7.207031l.429688-18.542969c.082031-3.53125 2.796874-6.472657 6.3125-6.847657l91.386718-9.695312c2.027344-.214844 3.980469.421875 5.492188 1.792969 1.507812 1.367187 2.328125 3.242187 2.3125 5.273437l-1.460938 176.273438c-.035156 4.007812 3.089844 7.332031 7.089844 7.550781l15.519531.847656c3.742188.203125 6.675781 3.292969 6.675781 7.035157v15.355468c-.003906 3.871094-3.160156 7.03125-7.039062 7.046875zm0 0"/><path d="m199.035156 399.828125 16.539063-.875c3.976562-.207031 7.097656-3.492187 7.105469-7.476563l.078124-55.652343c.003907-4.140625-3.347656-7.503907-7.488281-7.507813-.003906 0-.007812 0-.011719 0-4.136718 0-7.496093 3.347656-7.5 7.488282l-.070312 48.546874-9.445312.5c-11.574219.613282-20.75 10.164063-20.890626 21.746094l-.1875 15.21875c-.070312 5.953125 2.195313 11.558594 6.390626 15.785156 4.175781 4.214844 9.734374 6.53125 15.664062 6.53125h.085938l39.222656-.144531c4.144531-.015625 7.488281-3.386719 7.472656-7.527343-.015625-4.132813-3.367188-7.472657-7.5-7.472657-.007812 0-.019531 0-.027344 0l-39.222656.144531c-.011719 0-.019531 0-.027344 0-1.898437 0-3.679687-.742187-5.019531-2.09375-1.339844-1.347656-2.0625-3.140624-2.039063-5.042968l.183594-15.214844c.046875-3.699219 2.984375-6.753906 6.6875-6.953125zm0 0"/><path d="m252.640625 61.0625c-32.753906 0-59.398437 26.625-59.398437 59.351562 0 32.726563 26.644531 59.351563 59.398437 59.351563 32.75 0 59.394531-26.625 59.394531-59.351563 0-32.726562-26.644531-59.351562-59.394531-59.351562zm0 103.703125c-24.480469 0-44.398437-19.898437-44.398437-44.351563 0-24.457031 19.917968-44.351562 44.398437-44.351562 24.476563 0 44.394531 19.894531 44.394531 44.351562 0 24.453126-19.917968 44.351563-44.394531 44.351563zm0 0"/></svg>