<svg id="Capa_1" enable-background="new 0 0 512 512" height="512" viewBox="0 0 512 512" width="512" xmlns="http://www.w3.org/2000/svg"><path d="m318.786 247.824v68.297c-26.413-7.211-52.835-16.392-79.248-23.602v-68.297c26.413 7.21 52.835 16.391 79.248 23.602z" fill="#4f4c5f"/><path d="m160.29 212.421v68.297c-26.413.65-52.825 7.211-79.238 23.602l-23.163-34.148 23.163-34.148c26.413-16.393 52.825-22.953 79.238-23.603z" fill="#4f4c5f"/><path d="m239.538 224.222v68.297c-26.413-7.211-52.835-12.461-79.248-11.801v-68.297c26.413-.661 52.835 4.58 79.248 11.801z" fill="#e8e8e8"/><path d="m239.538 155.971v68.297c-26.413-7.211-52.835-12.461-79.248-11.801v-68.297c26.413-.66 52.835 4.58 79.248 11.801z" fill="#4f4c5f"/><path d="m160.29 75.807v68.297c-26.413.65-52.825 7.211-79.238 23.602l-23.163-36.896 23.163-31.401c26.413-16.391 52.825-22.952 79.238-23.602z" fill="#4f4c5f"/><path d="m239.538 87.72v68.297c-26.413-7.211-52.835-12.461-79.248-11.801v-68.297c26.413-.66 52.835 4.58 79.248 11.801z" fill="#e8e8e8"/><path d="m239.538 19.469v68.297c-26.413-7.211-52.835-12.461-79.248-11.801v-68.297c26.413-.66 52.835 4.581 79.248 11.801z" fill="#4f4c5f"/><g fill="#e8e8e8"><path d="m160.29 144.114v68.297c-26.413.65-52.825 7.211-79.238 23.602l-23.163-36.225 23.163-32.072c26.413-16.392 52.825-22.952 79.238-23.602z"/><path d="m160.29 7.5v68.297c-26.413.65-52.825 7.211-79.238 23.602l-23.163-38.033 23.163-30.264c26.413-16.391 52.825-22.952 79.238-23.602z"/><path d="m398.024 259.625v68.297c-26.413.66-52.825-4.58-79.238-11.801v-68.297c26.413 7.211 52.825 12.461 79.238 11.801z"/></g><path d="m477.272 236.023v59.286c0 5.691-3.06 10.981-8.061 13.711-23.722 12.961-47.455 18.322-71.187 18.902v-68.297c26.423-.65 52.825-7.21 79.248-23.602z" fill="#4f4c5f"/><path d="m398.024 191.347v68.297c-26.413.66-52.825-4.58-79.238-11.801v-68.297c26.413 7.21 52.825 12.461 79.238 11.801z" fill="#4f4c5f"/><path d="m398.024 259.644v-68.297c26.423-.65 52.825-7.211 79.248-23.602v68.279c-26.423 16.392-52.825 22.952-79.248 23.602" fill="#e8e8e8"/><path d="m398.024 191.365v-68.297c26.423-.65 52.825-7.211 79.248-23.602v68.279c-26.423 16.392-52.825 22.952-79.248 23.602" fill="#4f4c5f"/><path d="m398.024 123.068v68.297c-26.413.66-52.825-4.58-79.238-11.801v-68.297c26.413 7.211 52.825 12.461 79.238 11.801z" fill="#e8e8e8"/><path d="m398.024 54.789v68.297c-26.413.66-52.825-4.58-79.238-11.801v-68.297c26.413 7.211 52.825 12.462 79.238 11.801z" fill="#4f4c5f"/><path d="m457.964 41.473c-19.98 8.951-39.954 12.825-59.94 13.316v68.279c26.423-.65 52.825-7.211 79.248-23.602v-45.579c0-9.932-10.244-16.475-19.308-12.414z" fill="#e8e8e8"/><path d="m318.786 179.522v68.297c-26.413-7.211-52.835-16.392-79.248-23.602v-68.297c26.413 7.21 52.835 16.391 79.248 23.602z" fill="#e8e8e8"/><path d="m318.786 111.22v68.297c-26.413-7.211-52.835-16.392-79.248-23.602v-68.297c26.413 7.211 52.835 16.392 79.248 23.602z" fill="#4f4c5f"/><path d="m318.786 42.918v68.297c-26.413-7.211-52.835-16.392-79.248-23.602v-68.297c26.413 7.211 52.835 16.392 79.248 23.602z" fill="#e8e8e8"/><path d="m57.889 270.171 23.163 34.148c9.999-6.205 19.999-11 29.998-14.6v-68.297c-9.999 3.6-19.999 8.395-29.998 14.6z" fill="#423e4f"/><path d="m57.889 199.788 23.163 36.225c9.999-6.206 19.999-11 29.998-14.6v-68.297c-9.999 3.6-19.999 8.394-29.998 14.6z" fill="#c7c5cb"/><path d="m57.889 130.81 23.163 36.896c9.999-6.206 19.999-11 29.998-14.6v-68.297c-9.999 3.6-19.999 8.395-29.998 14.6z" fill="#423e4f"/><path d="m57.889 61.366 23.163 38.033c9.999-6.206 19.999-11 29.998-14.6v-53.688c0-4.815-.825-9.438-2.322-13.75-9.225 3.493-18.451 8.016-27.676 13.741z" fill="#c7c5cb"/><path d="m69.023 19.085h-22.269c-6.642 0-12.026 5.384-12.026 12.026v461.363c0 6.642 5.384 12.026 12.026 12.026h22.269c6.642 0 12.026-5.384 12.026-12.026v-461.363c.001-6.642-5.384-12.026-12.026-12.026z" fill="#358bd8"/><path d="m34.752 99.871c4.142 0 7.499-3.358 7.499-7.499v-61.21c0-2.495 2.03-4.525 4.525-4.525h22.267c2.494 0 4.523 2.028 4.525 4.521-.102 117.743 0 356.172 0 356.172 0 4.142 3.358 7.499 7.499 7.499s7.499-3.358 7.499-7.499v-78.739c21.801-12.776 46.67-19.73 71.921-20.351 39.926-.982 78.76 11.575 116.447 23.265 37.769 11.716 76.476 23.995 116.422 23.995 27.795 0 54.994-6.527 79.424-19.875 7.381-4.03 11.966-11.805 11.966-20.292 0 0 0-241.296 0-241.396 0-15.116-16.128-25.414-29.871-19.257-56.751 25.426-117.458 6.711-173.496-10.674-39.181-12.156-79.761-24.97-121.263-23.949-27.11.667-51.731 7.257-74.99 20.059-3.524-5.115-9.415-8.478-16.083-8.478h-22.266c-10.765 0-19.524 8.758-19.524 19.524v61.209c0 4.142 3.357 7.5 7.499 7.5zm56.642 2.187c18.77-10.565 39.938-16.78 61.407-18.329v53.245c-17.628 1.151-35.046 5.1-51.373 11.865-4.336 1.802-8.623 3.793-12.86 6v-51.147c.043-.025.087-.052.13-.078.892-.528 1.791-1.047 2.696-1.556zm164.146-1.991c18.598 5.57 37.055 11.617 55.74 16.895v52.691c-10.005-2.89-19.954-5.977-29.9-9.063-11.416-3.543-22.838-7.083-34.341-10.336v-52.691c2.838.821 5.671 1.657 8.501 2.504zm154.017 29.891c20.983-1.809 41.517-7.814 60.191-17.545v51.12c-.153.09-.305.186-.458.274-14.505 8.431-30.414 14.487-46.919 17.556-5.579 1.037-11.205 1.728-16.864 2.133v-53.216c1.352-.089 2.701-.205 4.05-.322zm58.286 102.949c-13.198 7.466-27.495 13.047-42.36 16.106-6.591 1.357-13.264 2.274-19.976 2.753v-53.216c3.099-.202 6.19-.494 9.273-.864 19.05-2.286 37.861-8.088 54.968-17.003v51.12c-.152.091-1.421.831-1.905 1.104zm-186.463-4.022c-11.418-3.538-22.837-7.086-34.341-10.336v-52.69c1.367.395 2.736.803 4.105 1.206 8.622 2.537 17.208 5.193 25.792 7.856 11.418 3.542 22.84 7.085 34.344 10.337v52.69c-2.838-.82-22.775-6.853-29.9-9.063zm-189.974-58.51c18.857-10.536 39.851-16.814 61.395-18.347v53.244c-17.641 1.152-35.055 5.108-51.394 11.875-4.33 1.799-8.609 3.787-12.839 5.991v-51.147c.043-.025.086-.052.129-.078.9-.525 1.804-1.032 2.709-1.538zm76.393-18.645c18.694.298 39.007 3.49 64.241 10.085v52.716c-24.781-6.274-45.191-9.328-64.241-9.604zm64.241-5.443c-24.781-6.274-45.191-9.328-64.241-9.604v-53.197c18.694.298 39.007 3.49 64.241 10.085zm-143.471 145.15v-51.147c.047-.028.094-.057.141-.084 14.383-8.411 30.168-14.472 46.542-17.598 5.796-1.107 11.662-1.866 17.548-2.279v53.244c-22.707 1.482-43.685 7.271-63.626 17.559-.201.104-.403.201-.605.305zm237.709-102.113c24.782 6.275 45.185 9.326 64.231 9.602v53.253c-18.689-.298-38.998-3.49-64.231-10.085zm64.231-5.417c-18.689-.298-38.998-3.49-64.231-10.085v-52.769c24.782 6.275 45.184 9.326 64.231 9.602zm-222.71 36.066c18.693.297 39.007 3.49 64.241 10.085v52.756c-24.813-6.277-45.214-9.33-64.241-9.607zm79.24 66.87v-52.69c10.005 2.89 19.951 5.978 29.897 9.062 11.419 3.538 22.839 7.086 34.344 10.337v52.691c-10.009-2.892-20.081-6.017-29.9-9.063-11.247-3.49-22.823-7.081-34.341-10.337zm79.239-29.247c24.782 6.275 45.184 9.326 64.231 9.602v53.28c-18.717-.297-39.026-3.496-64.231-10.092zm143.471 37.736c0 2.997-1.592 5.729-4.157 7.129-18.832 10.289-38.557 16.082-60.084 17.618v-53.257c3.099-.202 6.191-.495 9.274-.864 18.948-2.272 37.86-8.087 54.967-17.003zm-8.74-246.965c4.04-1.81 8.74 1.137 8.74 5.569v41.326c-.152.089-1.428.825-1.914 1.101-14.375 8.156-30.141 13.991-46.419 16.903-5.264.942-10.575 1.571-15.908 1.959v-53.215c19.692-1.278 37.915-5.764 55.501-13.643zm-70.5 67.269c-18.689-.299-38.998-3.49-64.231-10.085v-52.783c24.812 6.277 45.208 9.329 64.231 9.607zm-79.229-66.968v52.691c-21.49-6.211-42.713-13.315-64.241-19.399v-52.691c10.008 2.891 20.079 6.016 29.897 9.062 11.247 3.489 22.824 7.081 34.344 10.337zm-79.24 29.376c-24.781-6.275-45.191-9.328-64.241-9.604v-53.253c18.722.296 39.035 3.495 64.241 10.092zm-79.239-9.37c-17.63 1.151-35.066 5.093-51.39 11.873-4.331 1.8-8.612 3.789-12.844 5.993v-51.151c20.036-11.743 41.155-18.313 64.233-19.969v53.254z"/><path d="m46.777 512h22.267c10.513 0 19.088-8.358 19.486-18.775.024-.246.038-75.899.038-75.899 0-4.142-3.358-7.499-7.499-7.499s-7.499 3.358-7.499 7.499c0 0-.103 50.232 0 75.156-.003 2.492-2.032 4.52-4.525 4.52h-22.268c-2.495 0-4.525-2.03-4.525-4.525v-370.109c0-4.142-3.358-7.499-7.499-7.499s-7.499 3.358-7.499 7.499v370.108c-.001 10.766 8.757 19.524 19.523 19.524z"/></svg>