<svg height="512pt" viewBox="0 -5 512 511" width="512pt" xmlns="http://www.w3.org/2000/svg"><path d="m312.183594 251.816406h-112.902344c-93.457031 0-169.214844 75.757813-169.214844 169.214844v63.027344c0 5.296875 4.289063 9.589844 9.585938 9.589844h432.160156c5.292969 0 9.585938-4.292969 9.585938-9.589844v-63.027344c0-93.457031-75.757813-169.214844-169.214844-169.214844zm0 0" fill="#ff6930"/><path d="m359.964844 258.707031c20.710937 28.09375 32.960937 62.8125 32.960937 100.394531v66.871094c0 5.300782-4.296875 9.597656-9.597656 9.597656h-353.265625v48.484376c0 5.296874 4.296875 9.59375 9.597656 9.59375h432.144532c5.296874 0 9.59375-4.296876 9.59375-9.59375v-62.871094c0-76.890625-51.242188-141.800782-121.433594-162.476563zm0 0" fill="#ff5426"/><path d="m269.101562 288.113281h-21.46875c-26.386718 0-47.773437-21.390625-47.773437-47.773437v-13.152344c0-13.292969 10.777344-24.070312 24.070313-24.070312h68.875c13.292968 0 24.066406 10.777343 24.066406 24.070312v13.152344c.003906 26.386718-21.386719 47.773437-47.769532 47.773437zm0 0" fill="#ffcebf"/><path d="m292.78125 203.117188h-17.398438c13.304688 0 24.089844 10.789062 24.089844 24.09375v13.085937c0 26.40625-21.410156 47.816406-47.816406 47.816406h17.402344c26.40625 0 47.816406-21.410156 47.816406-47.816406v-13.085937c0-13.304688-10.785156-24.09375-24.09375-24.09375zm0 0" fill="#ffb19f"/><path d="m162.808594 126.523438v-49.1875c0-26.289063 19.148437-48.664063 45.121094-52.726563l103.292968-16.15625c22.460938-3.511719 42.753906 13.851563 42.753906 36.585937v81.484376zm0 0" fill="#945b44"/><path d="m311.222656 8.453125-12.871094 2.011719c13.746094 5.296875 23.765626 18.605468 23.765626 34.574218v81.484376h31.859374v-81.484376c0-22.734374-20.292968-40.097656-42.753906-36.585937zm0 0" fill="#87523e"/><path d="m367.308594 138.535156h-13.234375v-13.035156c0-40.933594-33.183594-74.113281-74.117188-74.113281h-43.183593c-40.929688 0-74.113282 33.179687-74.113282 74.113281v13.035156h-13.238281c-10.738281 0-19.445313 8.703125-19.445313 19.445313v9.734375c0 13.675781 11.085938 24.761718 24.761719 24.761718h5.246094c.964844 0 1.890625-.140624 2.777344-.390624 2.011719 39.132812 34.378906 70.242187 74.015625 70.242187h43.183594c39.632812 0 72-31.109375 74.011718-70.242187.886719.25 1.8125.390624 2.777344.390624h5.246094c13.675781 0 24.761718-11.085937 24.761718-24.761718v-9.734375c-.003906-10.742188-8.707031-19.445313-19.449218-19.445313zm0 0" fill="#ffcebf"/><path d="m367.308594 138.535156h-13.234375v-13.359375c0-40.753906-33.039063-73.789062-73.789063-73.789062h-30.921875c40.753907 0 73.789063 33.035156 73.789063 73.789062v63.367188c0 40.75-33.035156 73.789062-73.789063 73.789062h30.921875c39.5625 0 71.847656-31.136719 73.699219-70.242187.878906.246094 1.804687.386718 2.765625.386718h5.246094c13.675781 0 24.761718-11.085937 24.761718-24.757812v-9.738281c-.003906-10.742188-8.707031-19.445313-19.449218-19.445313zm0 0" fill="#ffb19f"/><path d="m228.359375 194.785156c-2.8125 0-4.800781 2.773438-3.882813 5.429688 4.859376 14.046875 18.191407 24.136718 33.890626 24.136718 15.699218 0 29.03125-10.089843 33.890624-24.136718.917969-2.65625-1.070312-5.429688-3.882812-5.429688zm0 0" fill="#fff"/><g fill="#ffcebf"><path d="m35.691406 377.765625c-3.664062 13.859375-5.625 28.410156-5.625 43.417969v62.867187c0 5.300781 4.292969 9.597657 9.59375 9.597657h111.914063zm0 0"/><path d="m471.804688 493.648438c5.296874 0 9.59375-4.296876 9.59375-9.597657v-62.867187c0-15.007813-1.960938-29.558594-5.625-43.417969l-115.882813 115.882813zm0 0"/><path d="m471.804688 493.648438c5.296874 0 9.59375-4.296876 9.59375-9.597657v-62.867187c0-15.007813-1.960938-29.558594-5.625-43.417969l-115.882813 115.882813zm0 0"/></g><path d="m471.804688 493.648438c5.296874 0 9.59375-4.296876 9.59375-9.597657v-62.867187c0-15.007813-1.960938-29.558594-5.625-43.417969l-115.882813 115.882813zm0 0" fill="#ffb19f"/><path d="m39.660156 493.648438h111.914063l-58.082031-58.082032h-63.429688v48.484375c0 5.300781 4.296875 9.597657 9.597656 9.597657zm0 0" fill="#ffb19f"/><path d="m498.84375 452.601562h-485.6875c-3.121094 0-5.648438 2.53125-5.648438 5.648438v29.75c0 3.117188 2.527344 5.648438 5.648438 5.648438h485.6875c3.121094 0 5.648438-2.53125 5.648438-5.648438v-29.75c0-3.117188-2.527344-5.648438-5.648438-5.648438zm0 0" fill="#945b44"/><path d="m498.839844 452.601562h-41.460938v18.625c0 3.125-2.53125 5.65625-5.652344 5.65625h-444.21875v11.109376c0 3.125 2.53125 5.65625 5.652344 5.65625h485.679688c3.121094 0 5.652344-2.53125 5.652344-5.65625v-29.738282c0-3.121094-2.53125-5.652344-5.652344-5.652344zm0 0" fill="#87523e"/><path d="m459.003906 409.914062h-13.589844c-5.988281 0-10.839843-4.855468-10.839843-10.839843 0-5.988281 4.851562-10.839844 10.839843-10.839844h13.589844c7.863282 0 14.265625-6.402344 14.265625-14.265625 0-7.867188-6.402343-14.269531-14.265625-14.269531h-13.589844c-5.988281 0-10.839843-4.851563-10.839843-10.839844 0-5.984375 4.851562-10.839844 10.839843-10.839844h13.589844c19.820313 0 35.945313 16.125 35.945313 35.949219 0 19.820312-16.125 35.945312-35.945313 35.945312zm0 0" fill="#efe2dd"/><path d="m474.652344 341.613281c6.832031 6.546875 11.097656 15.75 11.097656 25.9375 0 19.820313-16.125 35.945313-35.945312 35.945313h-13.589844c-.238282 0-.472656-.019532-.707032-.035156 1.683594 3.796874 5.480469 6.453124 9.90625 6.453124h13.589844c19.820313 0 35.945313-16.125 35.945313-35.945312 0-14.214844-8.292969-26.527344-20.296875-32.355469zm0 0" fill="#e1d3ce"/><path d="m395.019531 452.441406h-.125c-35.246093 0-63.816406-28.570312-63.816406-63.8125v-76.21875c0-6.648437 5.390625-12.039062 12.039063-12.039062h103.675781c6.652343 0 12.042969 5.390625 12.042969 12.039062v76.21875c0 35.242188-28.570313 63.8125-63.816407 63.8125zm0 0" fill="#ffb541"/><path d="m446.785156 300.367188h-40.519531c6.65625 0 12.050781 5.398437 12.050781 12.054687v83.109375c0 25.769531-17.128906 47.527344-40.621094 54.53125 5.492188 1.539062 11.277344 2.378906 17.257813 2.378906h.011719c35.273437 0 63.871094-28.59375 63.871094-63.871094v-76.152343c0-6.652344-5.398438-12.050781-12.050782-12.050781zm0 0" fill="#ffa812"/><path d="m447.535156 285.992188c-.253906-.011719-.472656-.171876-.558594-.414063-2.71875-7.804687-10.136718-13.40625-18.871093-13.40625-3.289063 0-6.390625.800781-9.125 2.207031-.351563.183594-.777344.003906-.890625-.378906-2.480469-8.214844-10.105469-14.195312-19.128906-14.195312-6.09375 0-11.546876 2.726562-15.210938 7.023437-.320312.375-.925781.242187-1.0625-.230469-2.394531-8.261718-9.980469-14.324218-18.996094-14.40625-10.996094-.105468-20.15625 8.945313-20.175781 19.945313-.003906 3.601562.945313 6.984375 2.609375 9.90625.25.4375-.097656.96875-.601562.917969-.660157-.066407-1.328126-.105469-2.007813-.105469-11.5 0-20.734375 9.71875-19.933594 21.390625.683594 9.988281 8.867188 18.027344 18.867188 18.546875 3.492187.183593 6.800781-.535157 9.714843-1.9375 2.214844-1.066407 4.785157-1.054688 7 .007812 2.613282 1.253907 5.539063 1.957031 8.632813 1.957031 3.335937 0 6.480469-.816406 9.246094-2.265624 2.269531-1.191407 5.007812-1.191407 7.277343 0 2.765626 1.449218 5.910157 2.265624 9.246094 2.265624 3.285156 0 6.382813-.789062 9.117188-2.195312 2.230468-1.144531 4.910156-1.144531 7.140625 0 2.734375 1.40625 5.832031 2.195312 9.117187 2.195312 2.777344 0 5.421875-.566406 7.828125-1.59375 2.679688-1.144531 5.792969-.898437 8.144531.828126 3.644532 2.683593 8.230469 4.160156 13.171876 3.835937 9.847656-.644531 17.859374-8.582031 18.582031-18.425781.84375-11.449219-7.96875-21.035156-19.132813-21.472656zm0 0" fill="#efe2dd"/><path d="m456.765625 288.675781c.859375 2.488281 1.242187 5.199219 1.035156 8.023438-.726562 9.84375-8.734375 17.78125-18.585937 18.429687-4.941406.320313-9.527344-1.152344-13.171875-3.835937-2.347657-1.730469-5.460938-1.976563-8.144531-.828125-2.402344 1.023437-5.046876 1.59375-7.828126 1.59375-3.285156 0-6.382812-.792969-9.113281-2.195313-2.234375-1.148437-4.910156-1.148437-7.144531 0-2.734375 1.402344-5.832031 2.195313-9.117188 2.195313-3.335937 0-6.480468-.820313-9.246093-2.269532-2.269531-1.1875-5.003907-1.1875-7.273438 0-2.765625 1.449219-5.910156 2.269532-9.25 2.269532-3.089843 0-6.019531-.703125-8.628906-1.957032-2.214844-1.066406-4.789063-1.074218-7-.011718-2.917969 1.40625-6.226563 2.121094-9.71875 1.941406-3.238281-.171875-6.285156-1.132812-8.949219-2.691406 2.601563 7.507812 9.59375 13.027344 17.820313 13.457031 3.492187.179687 6.804687-.535156 9.71875-1.941406 2.210937-1.0625 4.785156-1.054688 7 .007812 2.609375 1.257813 5.539062 1.960938 8.628906 1.960938 3.339844 0 6.484375-.820313 9.25-2.269531 2.269531-1.1875 5.003906-1.1875 7.273437 0 2.765626 1.449218 5.910157 2.269531 9.25 2.269531 3.28125 0 6.378907-.792969 9.113282-2.195313 2.234375-1.148437 4.910156-1.148437 7.144531 0 2.734375 1.402344 5.832031 2.195313 9.113281 2.195313 2.78125 0 5.425782-.570313 7.828125-1.597657 2.683594-1.144531 5.796875-.898437 8.144531.832032 3.644532 2.679687 8.230469 4.15625 13.175782 3.832031 9.847656-.644531 17.855468-8.582031 18.582031-18.425781.585937-8.007813-3.550781-15.097656-9.90625-18.789063zm0 0" fill="#e1d3ce"/><path d="m317.605469 152.730469c0 7.566406-6.136719 13.699219-13.703125 13.699219s-13.703125-6.132813-13.703125-13.699219c0-7.570313 6.136719-13.703125 13.703125-13.703125s13.703125 6.132812 13.703125 13.703125zm0 0"/><path d="m226.53125 152.730469c0 7.566406-6.132812 13.699219-13.699219 13.699219-7.570312 0-13.703125-6.132813-13.703125-13.699219 0-7.570313 6.132813-13.703125 13.703125-13.703125 7.566407 0 13.699219 6.132812 13.699219 13.703125zm0 0"/><path d="m288.375 187.277344h-60.015625c-3.75 0-7.285156 1.824218-9.460937 4.878906-2.171876 3.050781-2.738282 6.980469-1.515626 10.511719 6.039063 17.457031 22.507813 29.1875 40.984376 29.1875 18.476562 0 34.945312-11.726563 40.984374-29.1875 1.222657-3.53125.65625-7.464844-1.515624-10.511719-2.175782-3.054688-5.710938-4.878906-9.460938-4.878906zm-30.007812 29.566406c-10.402344 0-19.832032-5.6875-24.769532-14.550781h49.539063c-4.941407 8.863281-14.367188 14.550781-24.769531 14.550781zm0 0"/><path d="m498.839844 445.097656h-9.933594v-23.914062c0-5.035156-.226562-10.105469-.648438-15.113282 8.71875-7.953124 14.199219-19.398437 14.199219-32.101562 0-21.457031-15.640625-39.320312-36.113281-42.820312v-5.953126c4.425781-4.507812 7.324219-10.519531 7.8125-17.179687.554688-7.527344-1.898438-14.757813-6.90625-20.363281-3.941406-4.414063-9.242188-7.429688-14.984375-8.617188-4.75-8.742187-13.980469-14.367187-24.15625-14.367187-1.941406 0-3.878906.207031-5.773437.613281-4.90625-7.96875-13.617188-12.980469-23.375-12.980469-4.757813 0-9.363282 1.226563-13.414063 3.492188-5.046875-6.738281-13.078125-11.027344-21.78125-11.109375-.089844 0-.175781 0-.261719 0-4.867187 0-9.550781 1.285156-13.683594 3.6875-4.101562-.894532-8.246093-1.640625-12.417968-2.238282 12.4375-12.394531 20.75-28.621093 23.324218-46.148437h1.269532c17.792968 0 32.269531-14.472656 32.269531-32.265625v-9.738281c0-14.859375-12.09375-26.949219-26.953125-26.949219h-5.730469v-5.527344c0-1.277344-.039062-2.550781-.097656-3.8125v-76.652344c0-13.03125-5.679687-25.363281-15.582031-33.839843-9.898438-8.472657-22.960938-12.175781-35.839844-10.164063l-103.292969 16.15625c-29.820312 4.664063-51.46875 29.957032-51.46875 60.144532v43.394531c-.089843 1.578125-.148437 3.167969-.148437 4.769531v5.527344h-5.730469c-14.863281 0-26.953125 12.089844-26.953125 26.953125v9.734375c0 17.792968 14.476562 32.265625 32.269531 32.265625h1.269531c2.527344 17.242187 10.613282 33.222656 22.710938 45.53125-39.742188 4.613281-76.511719 22.449219-105.039062 51.289062-32.96875 33.328125-51.125 77.5-51.125 124.382813v23.910156h-9.394532c-7.257812 0-13.160156 5.90625-13.160156 13.160156v29.738282c0 7.257812 5.902344 13.160156 13.160156 13.160156h422.347656c4.144532 0 7.503907-3.359375 7.503907-7.507813 0-4.144531-3.359375-7.507812-7.503907-7.507812h-420.492187v-26.03125h139.957031c4.148438 0 7.507813-3.359375 7.507813-7.503907 0-4.148437-3.359375-7.507812-7.507813-7.507812h-41.332031l-69.472656-69.472656c19.476562-65.824219 79.957031-114.640625 151.59375-116.246094 7.921875 21.523438 28.722656 36.242188 51.914062 36.242188h21.382813c23.128906 0 43.871094-14.632813 51.84375-36.050782 5.804687.3125 11.589844.941406 17.308594 1.871094-1.433594 3.339844-2.191407 6.957031-2.199219 10.679688 0 1.410156.105469 2.8125.316406 4.195312-4.894531 1.332031-9.390625 4.003906-12.902344 7.765625-5.253906 5.625-7.855469 12.96875-7.328125 20.675781.449219 6.582032 3.214844 12.515625 7.476563 17.003906v66.808594c0 22.992188 10.9375 43.460938 27.867187 56.527344h-164.105468c-4.144532 0-7.507813 3.359375-7.507813 7.507812 0 4.144532 3.363281 7.503907 7.507813 7.503907h309.652343v26.03125h-29.699219c-4.144531 0-7.503906 3.363281-7.503906 7.507812 0 4.148438 3.359375 7.507813 7.503906 7.507813h31.550782c7.257812 0 13.160156-5.902344 13.160156-13.160156v-29.738282c0-7.253906-5.902344-13.15625-13.160156-13.15625zm-406.4375 0h-54.832032v-23.914062c0-9.679688.867188-19.171875 2.519532-28.402344zm395.039062-71.128906c0 13.585938-9.578125 24.972656-22.335937 27.773438.441406-2.359376.761719-4.753907.96875-7.1875 8.542969-2.941407 14.703125-11.054688 14.703125-20.585938 0-9.433594-6.03125-17.480469-14.433594-20.496094v-6.980468c12.132812 3.246093 21.097656 14.332031 21.097656 27.476562zm-317.125-296.632812c0-22.738282 16.308594-41.796876 38.773438-45.3125l103.292968-16.152344c8.535157-1.335938 17.195313 1.121094 23.757813 6.738281 6.566406 5.617187 10.328125 13.792969 10.328125 22.429687v33.238282c-14.808594-20.796875-39.09375-34.398438-66.511719-34.398438h-43.183593c-27.382813 0-51.644532 13.570313-66.457032 34.324219zm137.476563 174.113281c-4.933594 17.167969-20.859375 29.15625-38.734375 29.15625h-21.382813c-17.871093 0-33.796875-11.988281-38.734375-29.152344-.554687-1.945313-1.875-3.578125-3.660156-4.539063-20.414062-10.980468-33.835938-32.136718-35.023438-55.210937-.117187-2.277344-1.265624-4.378906-3.113281-5.710937-1.292969-.925782-2.828125-1.410157-4.382812-1.410157-.675781 0-1.359375.089844-2.023438.277344-.269531.074219-.515625.113281-.753906.113281h-5.246094c-9.515625 0-17.253906-7.742187-17.253906-17.253906v-9.738281c0-6.582031 5.355469-11.9375 11.9375-11.9375h13.238281c4.144532 0 7.507813-3.359375 7.507813-7.507813v-10.511718c.097656-.484376.148437-.984376.148437-1.5v-5.277344c2.207032-34.75 31.164063-62.351563 66.460938-62.351563h43.183594c35.535156 0 64.65625 27.972657 66.511718 63.054688v4.574219c0 .390624.039063.773437.097656 1.148437v10.863281c0 4.144532 3.359376 7.507813 7.503907 7.507813h13.238281c6.582031 0 11.941406 5.355469 11.941406 11.9375v9.738281c0 9.511719-7.742187 17.25-17.253906 17.25h-5.246094c-.238281 0-.488281-.035156-.757812-.109375-2.195313-.617187-4.550782-.199219-6.402344 1.132813-1.851562 1.332031-2.996094 3.433593-3.113281 5.710937-1.191407 23.070313-14.609375 44.226563-35.027344 55.207031-1.78125.957032-3.101563 2.59375-3.660156 4.539063zm26.605469 42.878906c2.667968-2.855469 6.367187-4.304687 10.375-3.898437 3.035156.3125 5.960937-1.09375 7.628906-3.652344 1.664062-2.554688 1.757812-5.792969.246094-8.453125-1.066407-1.871094-1.625-4.007813-1.625-6.175781.007812-3.300782 1.335937-6.429688 3.742187-8.808594 2.378906-2.355469 5.480469-3.644532 8.738281-3.644532h.117188c5.460937.050782 10.339844 3.75 11.855468 8.988282.832032 2.875 3.167969 5.054687 6.089844 5.6875 2.925782.632812 5.949219-.390625 7.894532-2.671875 2.378906-2.789063 5.839843-4.386719 9.5-4.386719 5.453124 0 10.367187 3.640625 11.945312 8.867188.703125 2.320312 2.382812 4.191406 4.613281 5.136718 2.230469.941406 4.746094.84375 6.894531-.261718 1.773438-.914063 3.6875-1.375 5.691407-1.375 5.304687 0 10.039062 3.363281 11.785156 8.378906 1.105469 3.160156 3.980469 5.292968 7.332031 5.433594.003906.003906.011719.003906.019532.003906 3.40625.132812 6.535156 1.609375 8.8125 4.15625 2.269531 2.542968 3.382812 5.832031 3.128906 9.261718-.453125 6.148438-5.433594 11.085938-11.585938 11.488282-2.992187.203125-5.84375-.628906-8.234375-2.386719-2.675781-1.972656-5.917969-2.988281-9.210937-2.988281-2.136719 0-4.296875.429687-6.332032 1.296875-1.539062.660156-3.183593.992187-4.878906.992187-2.007812 0-3.917968-.457031-5.683594-1.363281-4.382812-2.253906-9.617187-2.253906-14.003906-.003906-1.765625.910156-3.675781 1.367187-5.683594 1.367187-2.039062 0-3.980468-.472656-5.765624-1.410156-4.460938-2.335938-9.78125-2.335938-14.242188 0-1.789062.9375-3.726562 1.410156-5.765625 1.410156-1.886719 0-3.695313-.410156-5.382813-1.21875-4.300781-2.066406-9.222656-2.066406-13.503906-.003906-1.894531.910156-3.941406 1.316406-6.070312 1.203125-6.175782-.320313-11.347656-5.398437-11.765625-11.5625-.242188-3.511719.941406-6.855469 3.324219-9.40625zm4.1875 94.242187v-58.6875c1.136718.207032 2.292968.347657 3.472656.410157 4.613281.230469 9.234375-.683594 13.367187-2.671875.144531-.070313.324219-.070313.492188.011718 3.726562 1.789063 7.726562 2.699219 11.882812 2.699219 4.421875 0 8.824219-1.082031 12.726563-3.125.089844-.046875.222656-.046875.3125 0 3.902344 2.042969 8.304687 3.125 12.730468 3.125 4.355469 0 8.691407-1.046875 12.546876-3.027343.078124-.039063.199218-.039063.28125 0 3.851562 1.980468 8.191406 3.027343 12.546874 3.027343 3.730469 0 7.355469-.742187 10.769532-2.199219.34375-.144531.644531-.105468.75-.027343 4.71875 3.472656 10.449218 5.339843 16.3125 5.339843.597656 0 1.199218-.019531 1.800781-.058593.929687-.0625 1.847656-.175781 2.75-.328125v55.515625c0 31.078125-25.285156 56.363281-56.375 56.363281-31.082031 0-56.367187-25.285156-56.367187-56.367188zm121.65625 28.820313c4.730468-.136719 9.277343-1.019531 13.515624-2.554687.082032 2.117187.132813 4.234374.132813 6.347656v23.910156h-35.414063c9.378907-7.234375 16.910157-16.746094 21.765626-27.703125zm0 0"/><path d="m394.957031 413.410156c4.144531 0 7.507813-3.359375 7.507813-7.507812v-57.886719c0-4.144531-3.359375-7.503906-7.507813-7.503906-4.148437 0-7.507812 3.359375-7.507812 7.503906v57.886719c0 4.148437 3.363281 7.507812 7.507812 7.507812zm0 0"/><path d="m432.273438 413.410156c4.148437 0 7.507812-3.359375 7.507812-7.507812v-57.886719c0-4.144531-3.359375-7.503906-7.507812-7.503906-4.144532 0-7.503907 3.359375-7.503907 7.503906v57.886719c0 4.148437 3.359375 7.507812 7.503907 7.507812zm0 0"/><path d="m365.492188 405.902344v-57.886719c0-4.144531-3.359376-7.503906-7.507813-7.503906-4.144531 0-7.503906 3.359375-7.503906 7.503906v57.886719c0 4.148437 3.359375 7.507812 7.503906 7.507812 4.148437 0 7.507813-3.359375 7.507813-7.507812zm0 0"/></svg>