<svg height="512pt" viewBox="-3 0 512 512" width="512pt" xmlns="http://www.w3.org/2000/svg"><path d="m466.808594 504.5h-430.925782c-5.523437 0-10-4.476562-10-10v-164.984375h450.925782v164.984375c0 5.523438-4.480469 10-10 10zm0 0" fill="#945b44"/><path d="m476.808594 304.925781h-450.925782v-287.425781c0-5.523438 4.476563-10 10-10h430.925782c5.519531 0 10 4.476562 10 10zm0 0" fill="#efe2dd"/><path d="m142.296875 161.277344c-4.445313-.351563-8.5625.964844-11.824219 3.375-.933594.6875-2.175781.691406-3.109375.003906-.03125-.023438-.0625-.046875-.09375-.070312-.550781-.398438-.910156-.992188-1.011719-1.664063-1.269531-8.464844-8.558593-14.957031-17.375-14.957031-7.691406 0-14.222656 4.941406-16.609374 11.820312-.386719 1.117188-1.535157 1.800782-2.710938 1.625-1.890625-.285156-3.878906-.265625-5.941406.171875-8.238282 1.75-14.316406 9.164063-14.144532 17.585938.195313 9.542969 7.992188 17.21875 17.578126 17.21875h53.824218c9.988282 0 18.035156-8.335938 17.5625-18.429688-.414062-8.734375-7.429687-15.992187-16.144531-16.679687zm0 0" fill="#fff5f5"/><path d="m142.296875 161.277344c-1.882813-.148438-3.699219.015625-5.421875.421875 7.480469 1.765625 13.191406 8.40625 13.5625 16.257812.472656 10.09375-7.574219 18.425781-17.5625 18.425781h8.003906c9.988282 0 18.03125-8.332031 17.558594-18.425781-.410156-8.734375-7.425781-15.992187-16.140625-16.679687zm0 0" fill="#e1d3ce"/><path d="m113.808594 287.695312c-24.542969 0-44.4375-19.894531-44.4375-44.433593v-58.574219c0-1.535156 1.242187-2.78125 2.777344-2.78125h83.316406c1.53125 0 2.777344 1.246094 2.777344 2.78125v58.574219c0 24.542969-19.894532 44.433593-44.433594 44.433593zm0 0" fill="#ff9a00"/><path d="m155.464844 181.910156h-12.722656v51.617188c0 24.542968-19.894532 44.4375-44.433594 44.4375-5.386719 0-10.550782-.960938-15.328125-2.714844 7.992187 7.703125 18.851562 12.449219 30.828125 12.449219 24.539062 0 44.433594-19.894531 44.433594-44.4375v-58.574219c0-1.535156-1.242188-2.777344-2.777344-2.777344zm0 0" fill="#fc8900"/><path d="m304.703125 161.277344c-4.445313-.351563-8.5625.964844-11.824219 3.375-.933594.6875-2.179687.691406-3.109375.003906-.03125-.023438-.0625-.046875-.09375-.070312-.550781-.398438-.910156-.992188-1.011719-1.664063-1.269531-8.464844-8.558593-14.957031-17.375-14.957031-7.691406 0-14.222656 4.941406-16.609374 11.820312-.390626 1.117188-1.535157 1.800782-2.710938 1.625-1.890625-.285156-3.878906-.265625-5.941406.171875-8.242188 1.75-14.316406 9.164063-14.144532 17.585938.195313 9.542969 7.992188 17.21875 17.578126 17.21875h53.824218c9.988282 0 18.035156-8.335938 17.5625-18.429688-.414062-8.734375-7.429687-15.992187-16.144531-16.679687zm0 0" fill="#fff5f5"/><path d="m304.703125 161.277344c-1.882813-.148438-3.699219.015625-5.421875.421875 7.480469 1.765625 13.191406 8.40625 13.5625 16.257812.472656 10.09375-7.574219 18.425781-17.5625 18.425781h8c9.992188 0 18.035156-8.332031 17.5625-18.425781-.410156-8.734375-7.425781-15.992187-16.140625-16.679687zm0 0" fill="#e1d3ce"/><path d="m276.214844 287.695312c-24.542969 0-44.4375-19.894531-44.4375-44.433593v-58.574219c0-1.535156 1.246094-2.78125 2.78125-2.78125h83.3125c1.535156 0 2.777344 1.246094 2.777344 2.78125v58.574219c0 24.542969-19.894532 44.433593-44.433594 44.433593zm0 0" fill="#ff9a00"/><path d="m317.871094 181.910156h-12.722656v51.617188c0 24.542968-19.894532 44.4375-44.433594 44.4375-5.390625 0-10.550782-.960938-15.328125-2.714844 7.992187 7.703125 18.851562 12.449219 30.828125 12.449219 24.539062 0 44.433594-19.894531 44.433594-44.4375v-58.574219c0-1.535156-1.242188-2.777344-2.777344-2.777344zm0 0" fill="#fc8900"/><path d="m409.171875 7.5v297.425781h67.636719v-287.425781c0-5.523438-4.480469-10-10-10zm0 0" fill="#e1d3ce"/><path d="m409.171875 329.515625v131.691406c0 9.820313-7.960937 17.78125-17.78125 17.78125h-365.507813v15.511719c0 5.523438 4.476563 10 10 10h430.925782c5.519531 0 10-4.476562 10-10v-164.984375zm0 0" fill="#87523e"/><path d="m489.476562 342.507812h-471.976562c-5.523438 0-10-4.476562-10-10v-35.496093c0-5.523438 4.476562-10 10-10h471.976562c5.519532 0 10 4.476562 10 10v35.496093c0 5.523438-4.476562 10-10 10zm0 0" fill="#945b44"/><path d="m489.476562 287.011719h-46v26.496093c0 5.523438-4.476562 10-10 10h-425.976562v9c0 5.523438 4.476562 10 10 10h471.976562c5.519532 0 10-4.476562 10-10v-35.496093c0-5.523438-4.476562-10-10-10zm0 0" fill="#87523e"/><path d="m25.882812 40.101562h450.925782v32.804688h-450.925782zm0 0" fill="#945b44"/><path d="m445.390625 40.101562v8.007813c0 4.417969-3.582031 8-8 8h-411.507813v16.796875h450.925782v-32.804688zm0 0" fill="#87523e"/><path d="m199.917969 388.230469c0 12.332031-23.773438 16.269531-60.574219 16.269531-36.796875 0-60.574219-3.9375-60.574219-16.269531s23.777344-16.269531 60.574219-16.269531c36.800781 0 60.574219 3.9375 60.574219 16.269531zm0 0" fill="#b9abab"/><path d="m178.457031 374.457031c.074219.46875.128907.945313.128907 1.441407 0 12.328124-23.777344 16.269531-60.574219 16.269531-15.6875 0-28.992188-.71875-39.113281-2.496094 1.820312 11.195313 25.125 14.828125 60.445312 14.828125 36.800781 0 60.574219-3.9375 60.574219-16.269531 0-7.074219-7.839844-11.382813-21.460938-13.773438zm0 0" fill="#9e9797"/><path d="m390.761719 388.230469c0 12.332031-23.773438 16.269531-60.574219 16.269531-36.796875 0-60.570312-3.9375-60.570312-16.269531s23.773437-16.269531 60.570312-16.269531c36.800781 0 60.574219 3.9375 60.574219 16.269531zm0 0" fill="#b9abab"/><path d="m369.300781 374.457031c.074219.46875.128907.945313.128907 1.441407 0 12.328124-23.777344 16.269531-60.574219 16.269531-15.683594 0-28.992188-.71875-39.113281-2.496094 1.820312 11.195313 25.125 14.828125 60.445312 14.828125 36.800781 0 60.574219-3.9375 60.574219-16.269531 0-7.074219-7.839844-11.382813-21.460938-13.773438zm0 0" fill="#9e9797"/><path d="m489.476562 279.511719h-5.167968v-262.011719c0-9.648438-7.851563-17.5-17.5-17.5h-430.925782c-9.648437 0-17.5 7.851562-17.5 17.5v262.011719h-.882812c-9.648438 0-17.5 7.851562-17.5 17.5v35.496093c0 9.648438 7.851562 17.5 17.5 17.5h.882812v144.492188c0 9.648438 7.851563 17.5 17.5 17.5h430.925782c9.648437 0 17.5-7.851562 17.5-17.5v-43.328125c0-4.144531-3.359375-7.5-7.5-7.5-4.144532 0-7.5 3.355469-7.5 7.5v43.328125c0 1.378906-1.125 2.5-2.5 2.5h-69.03125l-14.609375-90.902344c10.015625-3.839844 15.09375-9.828125 15.09375-17.867187 0-9.769531-7.480469-16.515625-22.238281-20.054688-10.4375-2.5-25.429688-3.714843-45.832032-3.714843s-35.394531 1.214843-45.835937 3.714843c-14.753907 3.539063-22.238281 10.285157-22.238281 20.054688 0 8.351562 5.488281 14.488281 16.296874 18.300781l-14.546874 90.46875h-56.933594l-14.613282-90.902344c10.019532-3.839844 15.097657-9.828125 15.097657-17.867187 0-9.769531-7.484375-16.515625-22.242188-20.054688-10.4375-2.5-25.429687-3.714843-45.832031-3.714843s-35.394531 1.214843-45.832031 3.714843c-14.757813 3.539063-22.242188 10.285157-22.242188 20.054688 0 8.351562 5.488281 14.488281 16.296875 18.300781l-14.542968 90.46875h-37.140626c-1.378906 0-2.5-1.121094-2.5-2.5v-144.492188h144.722657c4.140625 0 7.5-3.355468 7.5-7.5 0-4.140624-3.359375-7.5-7.5-7.5h-160.605469c-1.378906 0-2.5-1.121093-2.5-2.5v-35.496093c0-1.378907 1.121094-2.5 2.5-2.5h471.976562c1.378907 0 2.5 1.121093 2.5 2.5v35.496093c0 1.378907-1.121093 2.5-2.5 2.5h-276.796874c-4.144532 0-7.5 3.359376-7.5 7.5 0 4.144532 3.355468 7.5 7.5 7.5h256.628906v68.300782c0 4.144531 3.355468 7.5 7.5 7.5 4.140625 0 7.5-3.355469 7.5-7.5v-68.300782h5.167968c9.648438 0 17.5-7.851562 17.5-17.5v-35.496093c0-9.652344-7.851562-17.5-17.5-17.5zm-151.789062 217.488281v-85.058594c12.496094-.203125 22.695312-.9375 30.871094-2.214844l14.027344 87.273438zm-60.570312-108.769531c0-.089844.605468-8.769531 53.070312-8.769531 52.46875 0 53.074219 8.679687 53.074219 8.769531 0 .050781-.195313 2.828125-9.761719 5.246093-.335938.054688-.65625.140626-.976562.238282-7.550782 1.769531-20.414063 3.285156-42.332032 3.285156-19.554687 0-31.90625-1.207031-39.707031-2.722656-.722656-.394532-1.515625-.679688-2.375-.816406-.542969-.085938-1.078125-.109376-1.601563-.078126-9.199218-2.394531-9.390624-5.105468-9.390624-5.152343zm15.941406 21.691406c7.957031 1.15625 17.765625 1.824219 29.628906 2.019531v85.058594h-43.628906zm-146.214844 87.078125v-85.058594c12.496094-.203125 22.695312-.9375 30.867188-2.214844l14.03125 87.273438zm-60.574219-108.769531c0-.089844.609375-8.769531 53.074219-8.769531s53.074219 8.679687 53.074219 8.769531c0 .046875-.191407 2.8125-9.675781 5.222656-.015626.003906-.03125.003906-.050782.007813-.378906.0625-.746094.15625-1.101562.273437-7.566406 1.761719-20.414063 3.265625-42.246094 3.265625-19.554688 0-31.902344-1.207031-39.703125-2.726562-.722656-.390626-1.519531-.675782-2.378906-.8125-.539063-.089844-1.078125-.109376-1.605469-.082032-9.191406-2.390625-9.386719-5.101562-9.386719-5.148437zm15.945313 21.691406c7.957031 1.15625 17.765625 1.824219 29.628906 2.019531v85.058594h-43.628906zm-66.332032-394.921875h430.925782c1.375 0 2.5 1.121094 2.5 2.5v15.101562h-435.925782v-15.101562c0-1.378906 1.121094-2.5 2.5-2.5zm-2.5 65.40625h337.539063c4.140625 0 7.5-3.355469 7.5-7.5s-3.359375-7.5-7.5-7.5h-337.539063v-17.804688h435.925782v17.804688h-64.5625c-4.140625 0-7.5 3.359375-7.5 7.5 0 4.144531 3.359375 7.5 7.5 7.5h64.5625v199.105469h-155.828125c5.3125-5.453125 9.375-12.035157 11.863281-19.308594 16.695312-.058594 30.261719-13.65625 30.261719-30.363281 0-15.761719-12.074219-28.753906-27.457031-30.222656v-14.929688c0-.570312-.058594-1.128906-.148438-1.675781.304688-1.777344.421875-3.585938.335938-5.40625-.589844-12.582031-10.496094-22.8125-23.042969-23.804688-3.796875-.304687-7.578125.269531-11.074219 1.625-3.945312-8.855469-12.886719-14.960937-22.929688-14.960937-9.347656 0-17.808593 5.195312-22.117187 13.257812-1.578125.019532-3.152344.195313-4.703125.523438-11.882812 2.519531-20.328125 13.066406-20.082031 25.074218.019531.945313.105469 1.878907.230469 2.804688-.214844.820312-.335938 1.675781-.335938 2.5625v58.574219c0 13.96875 5.449219 26.808593 14.648438 36.246093h-87.835938c5.3125-5.449218 9.371094-12.027343 11.855469-19.308593 16.691406-.0625 30.25-13.65625 30.25-30.363281 0-15.761719-12.070313-28.75-27.453125-30.222657v-14.925781c0-.585938-.0625-1.152344-.15625-1.710938.296875-1.761718.425781-3.558593.34375-5.371093-.589844-12.582031-10.496094-22.816407-23.042969-23.808594-3.796875-.300781-7.582031.269531-11.078125 1.628906-3.941406-8.855469-12.886719-14.960937-22.929688-14.960937-9.34375 0-17.808593 5.191406-22.117187 13.257812-1.578125.019532-3.148437.191406-4.699219.519532-11.882812 2.523437-20.332031 13.066406-20.085937 25.078124.019531.945313.105469 1.875.230469 2.804688-.214844.820312-.335938 1.675781-.335938 2.558594v58.574218c0 13.839844 5.566406 26.757813 14.796875 36.25h-43.289063zm233.980469 199.105469c-.582031-.382813-1.226562-.695313-1.929687-.910157-15.644532-4.765624-26.15625-18.964843-26.15625-35.339843v-53.851563h73.871094v53.851563c0 16.273437-10.429688 30.449219-25.949219 35.277343-.734375.226563-1.410157.558594-2.011719.972657zm60.785157-64.753907c7.085937 1.367188 12.453124 7.605469 12.453124 15.082032 0 7.488281-5.386718 13.730468-12.484374 15.085937.015624-.554687.03125-1.109375.03125-1.664062zm-87.679688-40.347656c1.382812-2.714844 3.972656-4.824218 7.113281-5.488281 1.085938-.230469 2.15625-.261719 3.273438-.097656 4.75.71875 9.339843-2.054688 10.910156-6.582031 1.40625-4.054688 5.230469-6.777344 9.519531-6.777344 4.949219 0 9.230469 3.683594 9.960938 8.566406.398437 2.65625 1.804687 4.996094 4.019531 6.625.015625.011719.027344.019531.042969.03125 3.59375 2.65625 8.425781 2.652344 12.023437-.003906 1.375-1.015625 3.675781-2.167969 6.777344-1.929688 3.570313.28125 6.671875 2.550782 8.210937 5.652344h-71.851562zm-135.089844 105.101563c-.515625-.296875-1.070312-.539063-1.667968-.710938-15.804688-4.476562-26.839844-19.09375-26.839844-35.539062v-53.851563h73.871094v53.851563c0 16.378906-10.511719 30.578125-26.164063 35.34375-.699219.210937-1.34375.523437-1.925781.90625zm60.363282-64.753907c7.085937 1.367188 12.453124 7.605469 12.453124 15.082032 0 7.488281-5.386718 13.730468-12.484374 15.085937.015624-.554687.03125-1.109375.03125-1.664062zm-87.679688-40.347656c1.382812-2.714844 3.972656-4.824218 7.113281-5.488281 1.085938-.230469 2.160157-.261719 3.273438-.097656 4.75.71875 9.339843-2.054688 10.910156-6.582031 1.40625-4.054688 5.230469-6.777344 9.523437-6.777344 4.945313 0 9.226563 3.683594 9.957032 8.566406.398437 2.671875 1.824218 5.023438 4.0625 6.65625 3.589844 2.65625 8.425781 2.65625 12.023437-.003906 1.375-1.015625 3.667969-2.167969 6.777344-1.929688 3.574219.28125 6.671875 2.550782 8.214844 5.652344h-71.855469zm0 0"/></svg>