<svg id="Capa_1" enable-background="new 0 0 512 512" height="512" viewBox="0 0 512 512" width="512" xmlns="http://www.w3.org/2000/svg"><g><g><path d="m457.57 311.517v119.9h-25.02v50.04h-353.391v-50.04h-24.73v-119.9h24.73v-50.04h133.54c6.81 10.3 13.55 20.49 19.57 29.59 10.71 16.19 34.43 16.34 45.35.29l20.34-29.88h134.59v50.04z" fill="#f9f5f3"/></g><g><path d="m124.826 343.186h144.687v88.235h-144.687z" fill="#f9f5f3"/></g><g><path d="m207.5 379.361c-9.774-24.619-10.331-36.175-10.331-36.175h72.343v88.235c-27.33.001-51.928-26.658-62.012-52.06z" fill="#d98964"/></g><g><path d="m186.839 379.361c9.774-24.619 10.331-36.175 10.331-36.175h-72.343v88.235c27.329.001 51.927-26.658 62.012-52.06z" fill="#d98964"/></g><g><path d="m413.203 190.297h-66.933c-.16.27-.32.54-.49.81h.09l-47.91 70.37h204.04v-71.18z" fill="#d98964"/></g><g><path d="m432.547 261.472h50.04v50.04h-50.04z" fill="#f9f5f3"/></g><g><path d="m432.547 431.422h50.04v50.04h-50.04z" fill="#f9f5f3"/></g><g><path d="m29.117 261.472h50.04v50.04h-50.04z" fill="#f9f5f3"/></g><g><path d="m29.117 431.422h50.04v50.04h-50.04z" fill="#f9f5f3"/></g><g><path d="m316.344 343.186h71.996v138.276h-71.996z" fill="#d98964"/></g><g><path d="m345.865 191.106-.085.004c10.523-17.081 16.314-37.388 15.529-59.098-2.019-55.815-47.993-100.703-103.839-101.464-58.872-.802-106.848 46.681-106.848 105.369 0 20.236 5.709 39.137 15.597 55.189l.001.001c.806 1.309 40.098 60.722 66.051 99.957 10.713 16.195 34.425 16.347 45.351.295z" fill="#ff7a7a"/></g><g><path d="m189.819 226.867c7.05 10.68 15.02 22.72 22.88 34.61h-202.699v-71.18h155.73c.16.27.32.54.49.81.399.65 10.429 15.83 23.599 35.76z" fill="#d98964"/></g><g><path d="m261.499 185.966h-33.88c-8.676 0-15.71-7.034-15.71-15.71v-60.659h65.3v60.659c0 8.677-7.034 15.71-15.71 15.71z" fill="#ffce62"/></g><g><path d="m482.588 321.513c5.522 0 10-4.478 10-10v-40.036h9.412c5.522 0 10-4.478 10-10v-71.18c0-5.522-4.478-10-10-10s-10 4.478-10 10v61.18h-175.133l34.843-51.18h61.493c5.522 0 10-4.478 10-10s-4.478-10-10-10h-50.678c6.375-15.281 9.385-31.816 8.777-48.646-1.087-30.056-14.249-58.784-36.067-79.446-21.312-20.183-49.882-31.666-79.249-31.666-30.53 0-59.245 11.767-81.009 33.236-22.154 21.854-34.354 51.026-34.354 82.143 0 15.327 3.048 30.394 8.876 44.38h-139.499c-5.522 0-10 4.478-10 10v71.18c0 5.522 4.478 10 10 10h9.117v40.036c0 5.522 4.478 10 10 10h15.313v99.909h-15.313c-5.522 0-10 4.478-10 10v40.04h-9.117c-5.522 0-10 4.478-10 10s4.478 10 10 10h492c5.522 0 10-4.478 10-10s-4.478-10-10-10h-9.412v-40.04c0-5.522-4.478-10-10-10h-15.019v-99.909h15.019zm-10-20h-30.038v-30.036h30.038zm-50.04-30.036v40.036c0 1.726.438 3.35 1.208 4.767 1.693 3.119 4.996 5.237 8.794 5.237h15.02v99.9h-15.02c-4.143 0-7.698 2.52-9.215 6.111-.507 1.197-.787 2.513-.787 3.894v40.035h-24.207v-128.27c0-5.522-4.478-10-10-10h-71.996c-5.522 0-10 4.478-10 10v128.271h-217.186v-40.04c0-5.522-4.478-10-10-10h-14.729v-99.9h14.729c5.522 0 10-4.478 10-10v-40.04h118.164l16.606 25.108c6.843 10.345 18.706 16.719 31.115 16.719 12.363 0 23.879-6.087 30.844-16.318l17.364-25.509h119.296zm-44.207 199.98h-51.996v-118.27h51.996zm-189.32-403.444c17.993-17.749 41.729-27.475 66.972-27.475 30.391 0 59.365 15.001 77.233 39.538 11.055 15.183 17.411 33.526 18.09 52.296.686 18.963-4.173 37.46-14.05 53.491-.127.205-.245.414-.355.626l-67.559 99.242c-3.277 4.815-8.485 7.57-14.305 7.57-5.812 0-11.228-2.908-14.436-7.756-17.85-26.985-64.926-98.208-65.885-99.699-9.226-14.983-14.104-32.248-14.104-49.93 0-25.722 10.086-49.837 28.399-67.903zm-169.021 132.284h140.287c2.92 4.434 30.131 45.618 33.81 51.18h-174.097zm19.117 71.18h30.04v30.036h-30.04zm0 199.985v-30.04h30.04v30.04zm433.471 0h-30.038v-30.04h30.038z"/><path d="m269.513 333.187h-144.687c-5.522 0-10 4.478-10 10v88.235c0 5.522 4.478 10 10 10h144.687c5.522 0 10-4.478 10-10v-88.235c0-5.523-4.478-10-10-10zm-10 20v66.727c-18.604-5.535-35.234-25.392-42.719-44.241-3.823-9.634-6.143-17.107-7.544-22.485h50.263zm-124.687 0h50.261c-1.402 5.383-3.722 12.861-7.542 22.485-7.484 18.85-24.115 38.706-42.719 44.241zm35.042 68.235c11.566-10.752 20.798-24.599 26.265-38.371.358-.902.701-1.783 1.037-2.653.335.87.679 1.751 1.037 2.653 5.468 13.772 14.699 27.619 26.265 38.371z"/><path d="m450.08 194.12c2.073 5.052 8.028 7.474 13.06 5.41 5.021-2.09 7.509-8.026 5.41-13.061-2.092-5.017-8.028-7.508-13.06-5.41-5.036 2.064-7.498 8.045-5.41 13.061.25.609-.25-.6 0 0z"/><path d="m227.618 195.966h33.881c14.177 0 25.71-11.533 25.71-25.71v-1.589h6.582c4.798 0 9.404-1.468 13.322-4.246l6.528-4.632c6.076-4.31 9.703-11.329 9.703-18.778v-18.391c0-12.695-10.328-23.023-23.023-23.023h-88.413c-5.522 0-10 4.478-10 10v60.659c0 14.177 11.533 25.71 25.71 25.71zm75.727-73.346v18.391c0 .978-.476 1.898-1.273 2.464-.001.001-.001.001-.002.002l-6.527 4.632c-.516.365-1.121.559-1.751.559h-6.582v-29.07h13.112c1.666-.001 3.023 1.355 3.023 3.022zm-81.437-3.023h45.301v50.659c0 3.148-2.562 5.71-5.71 5.71h-33.881c-3.148 0-5.71-2.562-5.71-5.71z"/><path d="m334.92 419.66c2.065 5.032 8.032 7.501 13.05 5.409 5.06-2.073 7.471-8.028 5.41-13.06-2.022-5.046-8.069-7.477-13.05-5.4-5.037 2.064-7.501 8.029-5.41 13.051.25.61-.25-.6 0 0z"/></g></g></svg>