<svg id="Capa_1" enable-background="new 0 0 512 512" height="512" viewBox="0 0 512 512" width="512" xmlns="http://www.w3.org/2000/svg"><g><g><circle cx="312.509" cy="289.008" fill="#d98964" r="181.226"/></g><g><path d="m89.632 125.684v-53.98h-41.713v430.296h41.713v-286.58z" fill="#b7bcce"/></g><g><path d="m107.871 49.101c0 8.426-2.662 16.22-7.202 22.606h-63.787c-4.54-6.386-7.202-14.18-7.202-22.606 0-21.596 17.505-39.101 39.091-39.101 21.595 0 39.1 17.505 39.1 39.101z" fill="#f9f5f3"/></g><g><path d="m231.846 210.375h116.629v136.398h-116.629z" fill="#ffce62"/></g><g><path d="m333.14 384.078h-85.96c-8.469 0-15.334-6.865-15.334-15.334v-21.97h116.629v21.97c0 8.469-6.866 15.334-15.335 15.334z" fill="#f9f5f3"/></g><g><path d="m231.846 210.375h116.629v35.342h-116.629z" fill="#fff0d7"/></g><g><path d="m503.735 289.008c0-68.489-36.2-128.673-90.463-162.453v-44.851h80.463c5.523 0 10-4.477 10-10s-4.477-10-10-10h-80.463v-.575c0-5.523-4.477-10-10-10s-10 4.477-10 10v.575h-161.105v-.575c0-5.523-4.477-10-10-10s-10 4.477-10 10v.575h-95.932c1.079-4.074 1.637-8.299 1.637-12.603 0-27.074-22.027-49.101-49.101-49.101-27.069 0-49.091 22.027-49.091 49.101 0 4.303.559 8.529 1.637 12.603h-3.052c-5.523 0-10 4.477-10 10s4.477 10 10 10l19.654.003v420.293c0 5.523 4.477 10 10 10s10-4.477 10-10v-420.293h21.713v43.978c0 5.523 4.477 10 10 10s10-4.477 10-10v-43.978l112.535-.003v44.589c-54.497 33.73-90.884 94.049-90.884 162.715 0 105.442 85.784 191.226 191.226 191.226 73.654 0 137.706-41.863 169.638-103.039.435-.64.789-1.337 1.068-2.071 13.117-25.896 20.52-55.156 20.52-86.116zm-464.055-239.907c0-16.046 13.05-29.101 29.091-29.101 16.046 0 29.101 13.055 29.101 29.101 0 4.419-.98 8.701-2.863 12.603h-52.466c-1.883-3.902-2.863-8.184-2.863-12.603zm192.487 32.603h161.105v33.996c-24.549-11.486-51.917-17.919-80.763-17.919-28.681 0-55.901 6.359-80.342 17.722zm80.342 378.53c-91.057 0-165.73-71.449-170.926-161.226h30.361c5.523 0 10-4.477 10-10s-4.477-10-10-10h-30.361c3.059-52.852 30.197-99.345 70.584-128.654v14.281c0 5.523 4.477 10 10 10s10-4.477 10-10v-26.795c23.974-12.793 51.324-20.059 80.342-20.059 29.188 0 56.689 7.348 80.763 20.281v26.573c0 5.523 4.477 10 10 10s10-4.477 10-10v-13.974c42.679 31.169 70.463 81.57 70.463 138.347 0 25.929-5.804 50.524-16.164 72.572h-26.585c-5.523 0-10 4.477-10 10s4.477 10 10 10h15.506c-30.506 47.284-83.649 78.654-143.983 78.654z"/><path d="m89.632 205.42c-5.523 0-10 4.477-10 10v286.58c0 5.523 4.477 10 10 10s10-4.477 10-10v-286.58c0-5.523-4.477-10-10-10z"/><path d="m389.756 200.375h-157.91c-5.523 0-10 4.477-10 10v158.369c0 13.969 11.365 25.334 25.334 25.334h85.96c13.969 0 25.334-11.365 25.334-25.334v-60.728h19.617c6.934 0 13.588-2.121 19.244-6.133l11.665-8.275c8.775-6.226 14.015-16.366 14.015-27.126v-32.848c0-18.339-14.92-33.259-33.259-33.259zm-147.91 20h96.629v77.641 38.758h-96.629zm96.629 148.369c0 2.941-2.393 5.334-5.334 5.334h-85.96c-2.941 0-5.334-2.393-5.334-5.334v-11.97h96.629v11.97zm64.54-102.263c0 4.29-2.089 8.332-5.587 10.814l-11.664 8.274c-2.255 1.6-4.908 2.445-7.672 2.445h-19.617v-67.641h31.281c7.311 0 13.259 5.948 13.259 13.259z"/><path d="m80.4 174.53c2.074 5.058 8.028 7.471 13.06 5.41 5.042-2.101 7.479-8.012 5.41-13.06-2.09-5.017-8.029-7.508-13.06-5.41-5.034 2.062-7.499 8.046-5.41 13.06.25.61-.25-.6 0 0z"/><path d="m403.86 367.76c-2.025-4.94-7.774-7.391-12.748-5.529-5.038 1.886-7.717 7.639-5.898 12.713 1.772 4.945 7.28 7.75 12.316 6.199 5.553-1.709 8.575-7.995 6.33-13.383-.25-.61.25.6 0 0z"/></g></g></svg>