<?xml version="1.0" encoding="iso-8859-1"?>
<!-- Generator: Adobe Illustrator 19.0.0, SVG Export Plug-In . SVG Version: 6.00 Build 0)  -->
<svg version="1.1" id="Capa_1" xmlns="http://www.w3.org/2000/svg" xmlns:xlink="http://www.w3.org/1999/xlink" x="0px" y="0px"
	 viewBox="0 0 470 470" style="enable-background:new 0 0 470 470;" xml:space="preserve">
<g>
	<path style="fill:#FFFFFF;" d="M379.102,358.687C408.7,324.255,425,280.329,425,235c0-104.766-85.234-190-190-190
		S45,130.234,45,235s85.234,190,190,190c45.329,0,89.255-16.3,123.687-45.898c3.103-2.667,7.759-2.346,10.475,0.691
		c3.676-3.409,7.223-6.955,10.632-10.631C376.756,366.446,376.434,361.79,379.102,358.687z M227.5,67.5c0-4.142,3.358-7.5,7.5-7.5
		s7.5,3.358,7.5,7.5v30c0,4.142-3.358,7.5-7.5,7.5s-7.5-3.358-7.5-7.5V67.5z M97.5,242.5h-30c-4.142,0-7.5-3.358-7.5-7.5
		s3.358-7.5,7.5-7.5h30c4.142,0,7.5,3.358,7.5,7.5S101.642,242.5,97.5,242.5z M242.5,402.5c0,4.142-3.358,7.5-7.5,7.5
		s-7.5-3.358-7.5-7.5v-30c0-4.142,3.358-7.5,7.5-7.5s7.5,3.358,7.5,7.5V402.5z M358.744,143.076l-96.66,96.66
		C259.831,252.65,248.548,262.5,235,262.5c-4.862,0-9.43-1.273-13.397-3.496l-78.481,78.481c-1.464,1.464-3.384,2.197-5.303,2.197
		s-3.839-0.732-5.303-2.197c-2.929-2.929-2.929-7.678,0-10.606l78.481-78.481c-1.484-2.649-2.54-5.566-3.08-8.661l-64.841-64.841
		c-2.929-2.929-2.929-7.678,0-10.606l21.213-21.213c2.929-2.929,7.678-2.929,10.606,0l64.841,64.841
		c0.318,0.055,0.635,0.111,0.949,0.178l10.22-10.219c-2.926-2.929-2.926-7.676,0.003-10.604l76.016-76.016
		c1.406-1.406,3.314-2.197,5.303-2.197s3.897,0.79,5.303,2.197l21.213,21.213C361.673,135.398,361.673,140.147,358.744,143.076z
		 M372.5,242.5c-4.142,0-7.5-3.358-7.5-7.5s3.358-7.5,7.5-7.5h30c4.142,0,7.5,3.358,7.5,7.5s-3.358,7.5-7.5,7.5H372.5z"/>
	<path style="fill:#6DA8D6;" d="M210.996,221.603c2.487-4.439,6.168-8.12,10.607-10.607l-52.01-52.01l-10.607,10.607
		L210.996,221.603z"/>
	<path style="fill:#98D9D5;" d="M259.004,221.603l83.83-83.83l-10.607-10.607l-70.712,70.713c-2.929,2.929-7.678,2.929-10.606,0
		c-0.003-0.003-10.222,10.216-10.222,10.216C248.552,209.755,255.185,214.788,259.004,221.603z"/>
	<path style="fill:#FF6E1D;" d="M235,15C113.691,15,15,113.692,15,235c0,121.309,98.691,220,220,220s220-98.691,220-220
		C455,113.692,356.309,15,235,15z M390.477,368.465c-2.7,3.141-7.434,3.499-10.577,0.798c-0.038-0.032-0.07-0.069-0.107-0.102
		c-3.409,3.676-6.955,7.223-10.632,10.631c0.033,0.037,0.069,0.069,0.102,0.107c2.7,3.141,2.343,7.876-0.798,10.577
		C331.313,422.413,283.915,440,235,440c-113.038,0-205-91.962-205-205c0-113.037,91.962-205,205-205s205,91.963,205,205
		C440,283.915,422.413,331.313,390.477,368.465z"/>
	<path style="fill:#082947;" d="M401.17,68.83C356.785,24.444,297.771,0,235,0S113.215,24.444,68.83,68.83
		C24.444,113.216,0,172.229,0,235s24.444,121.785,68.83,166.17C113.215,445.556,172.229,470,235,470s121.785-24.444,166.17-68.83
		C445.556,356.785,470,297.771,470,235S445.556,113.216,401.17,68.83z M235,455c-121.309,0-220-98.691-220-220
		c0-121.308,98.691-220,220-220s220,98.692,220,220C455,356.309,356.309,455,235,455z"/>
	<path style="fill:#FFCC75;" d="M247.5,235c0-6.893-5.607-12.5-12.5-12.5s-12.5,5.607-12.5,12.5s5.607,12.5,12.5,12.5
		S247.5,241.893,247.5,235z"/>
	<path style="fill:#082947;" d="M235,105c4.142,0,7.5-3.358,7.5-7.5v-30c0-4.142-3.358-7.5-7.5-7.5s-7.5,3.358-7.5,7.5v30
		C227.5,101.642,230.858,105,235,105z"/>
	<path style="fill:#082947;" d="M410,235c0-4.142-3.358-7.5-7.5-7.5h-30c-4.142,0-7.5,3.358-7.5,7.5s3.358,7.5,7.5,7.5h30
		C406.642,242.5,410,239.142,410,235z"/>
	<path style="fill:#082947;" d="M235,365c-4.142,0-7.5,3.358-7.5,7.5v30c0,4.142,3.358,7.5,7.5,7.5s7.5-3.358,7.5-7.5v-30
		C242.5,368.358,239.142,365,235,365z"/>
	<path style="fill:#082947;" d="M97.5,227.5h-30c-4.142,0-7.5,3.358-7.5,7.5s3.358,7.5,7.5,7.5h30c4.142,0,7.5-3.358,7.5-7.5
		S101.642,227.5,97.5,227.5z"/>
	<path style="fill:#082947;" d="M337.53,111.256c-1.406-1.406-3.314-2.197-5.303-2.197s-3.897,0.79-5.303,2.197l-76.016,76.016
		c-2.928,2.928-2.929,7.675-0.003,10.604c2.931,2.932,7.68,2.932,10.609,0.003l70.712-70.713l10.607,10.607l-83.83,83.83
		c-3.819-6.815-10.452-11.848-18.318-13.509c-0.314-0.066-0.632-0.122-0.949-0.178l-64.841-64.841
		c-2.929-2.929-7.678-2.929-10.606,0l-21.213,21.213c-2.929,2.929-2.929,7.678,0,10.606l64.841,64.841
		c0.54,3.094,1.596,6.012,3.08,8.661l-78.481,78.481c-2.929,2.929-2.929,7.678,0,10.606c1.464,1.464,3.384,2.197,5.303,2.197
		s3.839-0.732,5.303-2.197l78.481-78.481c3.967,2.223,8.535,3.496,13.397,3.496c13.548,0,24.831-9.85,27.083-22.763l96.66-96.66
		c2.929-2.929,2.929-7.678,0-10.606L337.53,111.256z M221.603,210.996c-4.439,2.487-8.12,6.168-10.607,10.607l-52.01-52.01
		l10.607-10.607L221.603,210.996z M222.5,235c0-6.893,5.607-12.5,12.5-12.5s12.5,5.607,12.5,12.5s-5.607,12.5-12.5,12.5
		S222.5,241.893,222.5,235z"/>
	<path style="fill:#082947;" d="M235,30C121.962,30,30,121.963,30,235c0,113.038,91.962,205,205,205
		c48.915,0,96.313-17.587,133.465-49.523c3.141-2.7,3.499-7.436,0.798-10.577c-0.032-0.038-0.069-0.07-0.102-0.107
		c-2.716-3.037-7.371-3.358-10.475-0.691C324.255,408.7,280.329,425,235,425c-104.766,0-190-85.234-190-190S130.234,45,235,45
		s190,85.234,190,190c0,45.329-16.3,89.255-45.898,123.687c-2.668,3.103-2.346,7.759,0.691,10.475
		c0.037,0.033,0.069,0.069,0.107,0.102c3.143,2.7,7.877,2.342,10.577-0.798C422.413,331.313,440,283.915,440,235
		C440,121.963,348.038,30,235,30z"/>
</g>
<g>
</g>
<g>
</g>
<g>
</g>
<g>
</g>
<g>
</g>
<g>
</g>
<g>
</g>
<g>
</g>
<g>
</g>
<g>
</g>
<g>
</g>
<g>
</g>
<g>
</g>
<g>
</g>
<g>
</g>
</svg>
