<?xml version="1.0" encoding="iso-8859-1"?>
<!-- Generator: Adobe Illustrator 19.0.0, SVG Export Plug-In . SVG Version: 6.00 Build 0)  -->
<svg version="1.1" id="Layer_1" xmlns="http://www.w3.org/2000/svg" xmlns:xlink="http://www.w3.org/1999/xlink" x="0px" y="0px"
	 viewBox="0 0 512 512" style="enable-background:new 0 0 512 512;" xml:space="preserve">
<circle style="fill:#FFEBEB;" cx="256" cy="289" r="194"/>
<circle style="fill:#FFCECE;" cx="256" cy="289" r="168"/>
<path style="fill:#FF6464;" d="M365,400H148V280.5c0-59.923,48.577-108.5,108.5-108.5l0,0c59.923,0,108.5,48.577,108.5,108.5V400z"
	/>
<path style="fill:#D2555A;" d="M285.213,175.39C276.79,173.254,268.043,172,259,172c-61.856,0-112,44.42-112,118.222V400h80V290.222
	C227,234.476,251.836,187.864,285.213,175.39z"/>
<path style="fill:#FF937C;" d="M290.824,286.824C290.824,267.591,275.233,252,256,252s-34.823,15.591-34.823,34.824
	c0,15.12,9.694,27.862,23.161,32.674L238.588,400h34.823l-5.75-80.502C281.129,314.686,290.824,301.944,290.824,286.824z"/>
<g>
	<path style="fill:#C7CFE2;" d="M366,446H148v-33.235c0-8.154,0-13.765,0-13.765h218c0,0,0,5.61,0,13.765V446z"/>
	<path style="fill:#C7CFE2;" d="M336.002,444.051h32.049C381.278,444.051,392,454.773,392,468v24H120v-24
		c0-13.227,10.723-23.949,23.949-23.949h160.049"/>
</g>
<g>
	<path style="fill:#AFB9D2;" d="M244,399h-96c-0.198,0.128,0,7.163,0,16v29h80v-29C228,406.163,235.164,399,244,399z"/>
	<path style="fill:#AFB9D2;" d="M216,444h-73c-10.755,0-23,9.983-23,23v25h80v-32C200,451.163,207.164,444,216,444z"/>
</g>
<g>
	<path style="fill:#2D2B29;" d="M368.051,436.051H368V268c0-61.757-50.243-112-112-112s-112,50.243-112,112v168.051h-0.051
		C126.333,436.051,112,450.383,112,468v24c0,4.418,3.582,8,8,8h272c4.418,0,8-3.582,8-8v-24
		C400,450.383,385.667,436.051,368.051,436.051z M384,484H128v-16c0-8.794,7.155-15.949,15.949-15.949h160.049c4.418,0,8-3.582,8-8
		s-3.582-8-8-8H160V268c0-52.935,43.065-96,96-96s96,43.065,96,96v168.051h-15.998c-4.418,0-8,3.582-8,8s3.582,8,8,8h32.049
		c8.794,0,15.949,7.155,15.949,15.949L384,484L384,484z"/>
	<path style="fill:#2D2B29;" d="M328,276c4.418,0,8-3.582,8-8c0-26.762-13.295-51.634-35.565-66.534
		c-3.672-2.458-8.641-1.472-11.098,2.2s-1.472,8.641,2.2,11.098C309.36,226.688,320,246.59,320,268C320,272.418,323.582,276,328,276
		z"/>
	<path style="fill:#2D2B29;" d="M336,316v-16c0-4.418-3.582-8-8-8s-8,3.582-8,8v16c0,4.418,3.582,8,8,8S336,320.418,336,316z"/>
	<path style="fill:#2D2B29;" d="M120,268c0-4.418-3.582-8-8-8H56c-4.418,0-8,3.582-8,8s3.582,8,8,8h56
		C116.418,276,120,272.418,120,268z"/>
	<path style="fill:#2D2B29;" d="M24,260H8c-4.418,0-8,3.582-8,8s3.582,8,8,8h16c4.418,0,8-3.582,8-8S28.418,260,24,260z"/>
	<path style="fill:#2D2B29;" d="M504,260h-16c-4.418,0-8,3.582-8,8s3.582,8,8,8h16c4.418,0,8-3.582,8-8S508.418,260,504,260z"/>
	<path style="fill:#2D2B29;" d="M456,260h-56c-4.418,0-8,3.582-8,8s3.582,8,8,8h56c4.418,0,8-3.582,8-8S460.418,260,456,260z"/>
	<path style="fill:#2D2B29;" d="M256,132c4.418,0,8-3.582,8-8V68c0-4.418-3.582-8-8-8s-8,3.582-8,8v56
		C248,128.418,251.582,132,256,132z"/>
	<path style="fill:#2D2B29;" d="M256,44.003c4.418,0,8-3.582,8-8V20c0-4.418-3.582-8-8-8s-8,3.582-8,8v16.003
		C248,40.421,251.582,44.003,256,44.003z"/>
	<path style="fill:#2D2B29;" d="M131.285,204.001c2.765,0,5.454-1.435,6.936-4.001c2.209-3.826,0.898-8.719-2.928-10.928l-90.067-52
		c-3.826-2.21-8.719-0.899-10.928,2.928c-2.209,3.826-0.898,8.719,2.928,10.928l90.067,52
		C128.552,203.656,129.928,204.001,131.285,204.001z"/>
	<path style="fill:#2D2B29;" d="M466.774,137.072l-90.067,52c-3.826,2.209-5.137,7.102-2.928,10.928
		c1.482,2.566,4.171,4.001,6.936,4.001c1.357,0,2.733-0.346,3.993-1.073l90.067-52c3.826-2.209,5.137-7.102,2.928-10.928
		C475.494,136.173,470.601,134.864,466.774,137.072z"/>
	<path style="fill:#2D2B29;" d="M324,150.221c1.26,0.728,2.635,1.073,3.993,1.073c2.765,0,5.454-1.435,6.936-4.001l52-90.067
		c2.209-3.826,0.898-8.719-2.928-10.928c-3.827-2.21-8.719-0.899-10.928,2.928l-52,90.067
		C318.863,143.119,320.174,148.012,324,150.221z"/>
	<path style="fill:#2D2B29;" d="M177.072,147.292c1.482,2.566,4.171,4.001,6.936,4.001c1.357,0,2.733-0.346,3.993-1.073
		c3.826-2.209,5.137-7.102,2.928-10.928l-52-90.067c-2.209-3.827-7.102-5.136-10.928-2.928c-3.826,2.209-5.137,7.102-2.928,10.928
		L177.072,147.292z"/>
</g>
<g>
</g>
<g>
</g>
<g>
</g>
<g>
</g>
<g>
</g>
<g>
</g>
<g>
</g>
<g>
</g>
<g>
</g>
<g>
</g>
<g>
</g>
<g>
</g>
<g>
</g>
<g>
</g>
<g>
</g>
</svg>
